<svg xmlns="http://www.w3.org/2000/svg" viewBox="0 0 1920.05 1113.37"><defs><style>.cls-1{fill:#fbe43a;}.cls-2{fill:#fff;stroke:#fff;stroke-miterlimit:10;stroke-width:4px;}</style></defs><title>資產 1</title><g id="圖層_2" data-name="圖層 2"><g id="圖層_1-2" data-name="圖層 1"><path class="cls-1" d="M1920.05,0l0,1102.9c-80.68-107.67-183.29-181-312.1-170.73-86.55-79.86-181.12-102.34-285-58.29-130.34-59.26-265.38-53.52-405,15.27-143.09-68.27-278.77-74.93-406.48-15.27-119.71-32.6-204.29,51-282.7,126.16C145.65,994.41,57.93,1036.51,0,1113.37L.05,10.42c80.69,107.67,183.3,181.07,312.12,170.74,86.55,79.86,181.12,102.34,285,58.29,130.34,59.28,265.38,53.54,405-15.27,143.09,68.28,278.77,74.93,406.48,15.27,119.71,32.61,204.29-51,282.7-126.16C1774.42,118.93,1862.13,76.85,1920.05,0Z"/><ellipse class="cls-2" cx="568.21" cy="337.78" rx="29.98" ry="33.63" transform="translate(142.04 843.08) rotate(-80.59)"/><ellipse class="cls-2" cx="591.63" cy="415.34" rx="13.89" ry="15.59" transform="matrix(0.16, -0.99, 0.99, 0.16, 85.12, 931.07)"/><ellipse class="cls-2" cx="1024.94" cy="423.5" rx="15.58" ry="13.9" transform="translate(-38.42 108.66) rotate(-5.96)"/><ellipse class="cls-2" cx="1540.5" cy="402.23" rx="15.61" ry="13.87" transform="translate(-49.74 480.2) rotate(-17.44)"/><ellipse class="cls-2" cx="1024.77" cy="343.54" rx="33.61" ry="30"/><ellipse class="cls-2" cx="1513.53" cy="334.55" rx="33.62" ry="29.99" transform="translate(-26.55 158.88) rotate(-5.96)"/><path d="M253.4,291.56a14.39,14.39,0,0,0-5.37.76l-5.83.73-12.15,2a22.43,22.43,0,0,1-5,.71,13.6,13.6,0,0,0-2.38.86,11.92,11.92,0,0,1-2.3-.1q-1.2.32-2.4.75a14.56,14.56,0,0,1-2.56.42,19,19,0,0,0-2.9.47,12.34,12.34,0,0,1-2.91.37l0,.22c-1.27.14-2.52.22-3.73.26a11.89,11.89,0,0,0-1.58.14l-1.41.47c-1.35.15-2.67.24-3.95.3a9.07,9.07,0,0,1-1.43.35,20.25,20.25,0,0,0-2.06,0c-1.19.2-2.34.43-3.44.69l-4.16.44q-1.65.39-3.3.84a4.84,4.84,0,0,1-3.36-.33.89.89,0,0,1-.8.72,6.09,6.09,0,0,1-1.25.08,9.78,9.78,0,0,1-2.65-.15,5.25,5.25,0,0,1-2-.31,2.64,2.64,0,0,1-1.52-1.34,2,2,0,0,1,.09-2,3.41,3.41,0,0,1,1.57-1.32q2.94-.94,5.86-2a43.91,43.91,0,0,1,4.72-2,9.52,9.52,0,0,1,2.51-.77c.37-.06.76-.1,1.18-.13a.78.78,0,0,1,.84.62,17.22,17.22,0,0,1,6-.62,23.16,23.16,0,0,0,3.23-.53l3.16-.28a36,36,0,0,0,6.44-.47,7.88,7.88,0,0,1,3-.38,4.83,4.83,0,0,0,1.45-.24,5.61,5.61,0,0,1,1.91-.2,1.63,1.63,0,0,1,.92-.32,8.86,8.86,0,0,0,1-.1l2.56-.42,4.91-.81L234.53,287q5.24-.87,10.45-1.84a42.68,42.68,0,0,0,4.88-1.33,32.15,32.15,0,0,1,4.9-1.21c1.64-.19,3.25-.42,4.81-.67,1.61-.42,3.19-.76,4.75-1a4.15,4.15,0,0,1,3.25.29,4.1,4.1,0,0,1,.82,3.87,4.18,4.18,0,0,1-1.94,2.9,9.16,9.16,0,0,1-3.24,1.24c-1.56.25-3.09.47-4.59.63A26.44,26.44,0,0,0,253.4,291.56Z"/><path d="M197.71,404.86c-1.07,0-2.12.07-3.17.17a1.45,1.45,0,0,1-2-.27l0,.23a2.8,2.8,0,0,1-3.28-.52,7,7,0,0,1-.61-3.9A62.71,62.71,0,0,0,187.29,390a6.36,6.36,0,0,1-.62-6.24,7.25,7.25,0,0,1,3.38-1.74,20,20,0,0,1,2.18-.71,3.56,3.56,0,0,1,2.32-.49,6.48,6.48,0,0,1,4.92-.69,33.82,33.82,0,0,0,5.61-.69,7.92,7.92,0,0,0,3.06-.15,5.34,5.34,0,0,1,2.64-.67,1.39,1.39,0,0,1,.3-.28l.29.42a2.36,2.36,0,0,0,1.45-.24l2.9-.47c.77,0,1.61.09,2.54.17a24.51,24.51,0,0,1,2.4-.75,8.78,8.78,0,0,0,3.14-.39,3.73,3.73,0,0,1,3.34-.55,11.56,11.56,0,0,0-.41-5.58c-.57-2.25-1.09-4.56-1.53-6.92a14.48,14.48,0,0,0-.61-2.48,3.35,3.35,0,0,1-.72-2.47,5.6,5.6,0,0,1,3.52-2.34,8.15,8.15,0,0,0,5-.82,3.35,3.35,0,0,1,3.89,1.48,19,19,0,0,1,.94,5.37,48,48,0,0,0,1.44,6.34,16.47,16.47,0,0,0,1,4.67,3.74,3.74,0,0,0,4.55,1.37q5.91-1,11.94-1.85,6.24-1,12.28-2.6a5.9,5.9,0,0,0,2.37-1,5.92,5.92,0,0,1,2-1.15,14.19,14.19,0,0,0,2.52.05,12.61,12.61,0,0,1,2.84-.11,20.09,20.09,0,0,1,4.3.47,3.24,3.24,0,0,1,1.85,3.81,4.82,4.82,0,0,1-1.48,1.54,4.76,4.76,0,0,0-1.15,2.18c-.6,2-1.26,3.9-2,5.73q-.81,3-1.41,5.64a3.27,3.27,0,0,1-2.09,3.52,4.27,4.27,0,0,0-1.93.08,5,5,0,0,1-2.32.5,11.85,11.85,0,0,1-5,0q-2.14-4.23,1.17-8.66,2.93-4,.35-6.63a19.61,19.61,0,0,1-4.7.65,8.69,8.69,0,0,0-2.82.23,1.13,1.13,0,0,0-.36.64,2.69,2.69,0,0,1-1.11.18c-1.74.13-3.46.3-5.18.5-2.18.2-4.32.44-6.41.7q-6.18.66-12.35,1.44t-12.28,1.07a22,22,0,0,0-3.09.74,15.33,15.33,0,0,1-3.25.42,19.68,19.68,0,0,1-2.93.95,13.78,13.78,0,0,0-3.5.34,3.57,3.57,0,0,1-2.72.09,3.4,3.4,0,0,0-2.62.08,12,12,0,0,0-5.41,1.24,6.2,6.2,0,0,0,0,4.35,38,38,0,0,0,1.33,7.07,9.38,9.38,0,0,1,.76,4.93A4.86,4.86,0,0,1,197.71,404.86Zm6.72,58.85a45.79,45.79,0,0,1-5.73-.12,5,5,0,0,1-3.88-.66,3.47,3.47,0,0,1-.3-4.18q1-2.87,1.95-5.84,3.34-12.32,6.55-24.82l1.38-5.87q.63-2.58,1.57-5.32,3.17-3.91,8.69-2.95c3-.5,4.67.69,4.89,3.55a43.63,43.63,0,0,1-2.6,8.3q-1.33,4.69-2.77,9.39a6.34,6.34,0,0,0-.69,2.93,1.87,1.87,0,0,0,2.42,1.61,23.62,23.62,0,0,1,4.75.39,35.38,35.38,0,0,0,5.32.42,47.37,47.37,0,0,0,4.93.13,9.39,9.39,0,0,0,2.65.16c.76-.05,1.55-.06,2.4,0-.05-.78-.13-1.59-.26-2.43s-.11-1.63-.17-2.56a33,33,0,0,1-1.08-5.46q-.91-5.14-1.87-10.63T231,408.8c-.26-1.68-.56-3.35-.89-5-.11-.69-.22-1.42-.34-2.18a4.3,4.3,0,0,1-.82-2.34c-.82.14-1.64.23-2.47.29a13.11,13.11,0,0,1-3,.61l-6.91,1.13-2.67.44-2.9-.23c-.95.24-1.82.5-2.62.78a9.65,9.65,0,0,1-2.76-.13,2.48,2.48,0,0,1-2.7-1.91,3.29,3.29,0,0,1,2.38-3.09,22.51,22.51,0,0,1,5.5-1.38,12.67,12.67,0,0,0,2.85-.82,4.41,4.41,0,0,0,2.45-.4,6.46,6.46,0,0,0,5.71,0q3-.39,6-.88a13.38,13.38,0,0,0,6.43-1.29,8.66,8.66,0,0,0,4.86-.32q2.76-.57,5.66-1.05t5.56-1a7.51,7.51,0,0,0,2.34-1.09c.82-.13,1.68-.23,2.58-.31a11.88,11.88,0,0,1,3.94-.41,7.57,7.57,0,0,0,2.28,0,3.32,3.32,0,0,1,2,.86,3,3,0,0,1,.48,3.8,2.72,2.72,0,0,1-3,1.31c-.24.44-.61.5-1.11.19a2.1,2.1,0,0,1-3.18.16,7.44,7.44,0,0,1-4.75,1c-1.64.27-3.3.58-5,.94a2.2,2.2,0,0,0-2.36,1,1,1,0,0,0-1-.2c-.11-.21-.26-.19-.44.08a1.42,1.42,0,0,0-.16,1.2c.28.82.51,1.56.69,2.24a27.84,27.84,0,0,0,.72,6.11,6.7,6.7,0,0,0,1.44,5.64,8.56,8.56,0,0,0,3.49.37,2.71,2.71,0,0,0,3-.27c.27.27.61.22,1-.16a8.18,8.18,0,0,1,2.32-.5,17.47,17.47,0,0,0,6.17-1.48,28.69,28.69,0,0,1,5.7-.82,19.31,19.31,0,0,1,5.51.16,3.18,3.18,0,0,1,2.39,2.9,3.07,3.07,0,0,1-2.58,2.53,46.19,46.19,0,0,1-5.33,1.7,57.34,57.34,0,0,1-6.08,1.35q-3,.38-6,.51a27.65,27.65,0,0,1-6.16.78,2.69,2.69,0,0,0-3.09,1.44,8,8,0,0,0,.56,4.38,25.23,25.23,0,0,1,.93,5.25c.14.92.32,1.8.52,2.62.12,1.24.26,2.43.44,3.58a6.39,6.39,0,0,0,.86,4.79,7.26,7.26,0,0,0,4.36.11,33.87,33.87,0,0,0,8.12.08,36.91,36.91,0,0,1,4.08-.2,15.33,15.33,0,0,0,3.82.31,9.3,9.3,0,0,0,2.89-1.29c1.31-.38,2.62-.79,3.92-1.23a35.69,35.69,0,0,1,4.13-1.39,14.59,14.59,0,0,1,3.95.41,7.18,7.18,0,0,1,6.16,2.87,8.07,8.07,0,0,1-4.91,3.75,49,49,0,0,1-7.84,2.46,12.08,12.08,0,0,1-4,.66,9.26,9.26,0,0,0-3.32,0,1.81,1.81,0,0,0-1.94,0c-1.38,0-2.72-.07-4-.16a38.77,38.77,0,0,1-4.56,0,22.51,22.51,0,0,1-4-.16l0,.23a32.14,32.14,0,0,1-5.45-.52l-6.31-.14,0,.11a8.39,8.39,0,0,1-3.49-.37,19.52,19.52,0,0,1-3.95-.41,3.3,3.3,0,0,0-4,.3,2.16,2.16,0,0,0-2.61-.63,1.21,1.21,0,0,0-1.17-.16,4.49,4.49,0,0,1-2.44-.3,34.84,34.84,0,0,1-5.68-.48,42,42,0,0,0-5.62-.14,4.07,4.07,0,0,0-4.21.81,19.21,19.21,0,0,0-1.54,4.83,30,30,0,0,0-1.34,5.4c-.39,1.86-.84,3.66-1.33,5.39A4,4,0,0,1,204.43,463.71Z"/><path d="M213.76,535.76c-1,.16-1.89.27-2.8.34a13.18,13.18,0,0,1-2.45.41,2.19,2.19,0,0,1-1.65-2.55q-.63-6.26-1.75-12.77-1-6.3-1.86-12.74a4.06,4.06,0,0,1,1-3.92,11.14,11.14,0,0,1,4.87-1.74q2.64-.68,5.52-1.26c1.91,0,3.85,0,5.83,0,1.83-.45,3.67-.84,5.53-1.14a2.77,2.77,0,0,0,3.19-1.58,14.8,14.8,0,0,0-.73-5.41c0-1.09-.08-2.22-.18-3.38a2.08,2.08,0,0,0-3-.91,38.75,38.75,0,0,1-5.83,1.42q-5.83,1.42-11.74,2.4-5.47,2.31-8.58-1.53a2.85,2.85,0,0,1,2.7-2.45l5.69-1.63q6.09-1.24,12.37-2,6.21-1.26,12.54-2.41,5.7-.83,11.72-1.81t12.44-2.27l12.56-1.59a72.11,72.11,0,0,1,9-1.37c1.35-.14,2.77-.33,4.25-.58,1.3-.45,2.61-.85,3.92-1.23,2.54-.33,5.1-.56,7.67-.67a5.22,5.22,0,0,1,4.37.93q.67,2.84-2.4,3.69a13,13,0,0,1-3.49.33,26.92,26.92,0,0,0-4.07,1,91.28,91.28,0,0,1-18.38,2.31c.2,1.77.36,3.55.48,5.33q0,1.53,1.11,1.23a17.47,17.47,0,0,1,1,5.83l2.41-.63a4.26,4.26,0,0,0,1.06.18l.74-.36a14,14,0,0,0,6.2-.55c.81-.21,1.66-.38,2.55-.53a7.82,7.82,0,0,0,2.53-.65,7.44,7.44,0,0,1,2.45-1.11l2.9-.47c3.27-1.48,6.22-1.18,8.82.9a25.49,25.49,0,0,1,1.27,8.14q.95,6.19,2,12.13a9.84,9.84,0,0,1,0,5.06,3.11,3.11,0,0,1-1.28,1.27,13.89,13.89,0,0,0-2.07.69,21.58,21.58,0,0,1-1.5,2.83,8.18,8.18,0,0,1-3.76.86c-2,.32-4,.69-5.88,1.08a18,18,0,0,1-2.79.46c-1.07,0-2.06,0-3-.1-1.22.43-2.42.83-3.59,1.17a34.92,34.92,0,0,1-4.22,0q-4.73.54-9.36,1.54c-3,.48-5.92.93-8.83,1.33a30.74,30.74,0,0,0-4.44.84,42.1,42.1,0,0,1-4.45.73c-1.27.21-2.53.38-3.81.51-1.47.32-3,.6-4.44.85q-4.77.9-9.45,1.66a13.75,13.75,0,0,0-3.82,1.22,11.34,11.34,0,0,1-4.42,1c-3.17.68-6.32,1.19-9.47,1.55l0,.23C214.57,535.79,214.15,535.78,213.76,535.76Zm42.64,39.91a28.93,28.93,0,0,0-4.32.13,2.47,2.47,0,0,1-2.6-.52q-.31-2.78,2.52-4.41c1.69-.9,2.2-2,1.54-3.31l-3.7-.33a5.68,5.68,0,0,0-3.73.26,2.24,2.24,0,0,0-2.54-.17,11.48,11.48,0,0,1-2.81.34c-1.06,0-2.17,0-3.32,0-1,.15-1.9.27-2.8.34a8.22,8.22,0,0,1-2.43-.19,3.91,3.91,0,0,1-3.7-1.75,5.56,5.56,0,0,1,1.11-4.64c.35-.69.73-1.42,1.15-2.19.26-.75.56-1.54.88-2.38a10.89,10.89,0,0,0,1.51-5.77,2,2,0,0,0-2.3-.8q-2.9.48-5.72.7a12.34,12.34,0,0,1-2,.81c-.78-.11-1.52-.18-2.21-.23a38.39,38.39,0,0,1-5.9,1,44.19,44.19,0,0,1-4.86,0c-1.81-.09-2.63-1.09-2.47-3a4.82,4.82,0,0,1,3.93-1.94A8.87,8.87,0,0,0,214,547c.93-.38,1.83-.73,2.7-1a1.06,1.06,0,0,0,.37.18,4.27,4.27,0,0,1,2.37-.16,9.78,9.78,0,0,1,2.08.13,15.28,15.28,0,0,0,3.29-.18,16.41,16.41,0,0,0,3.75-.85,1.23,1.23,0,0,0,.87-.26,7.63,7.63,0,0,1,1.9-.31,4.49,4.49,0,0,0,3.73-1,6.91,6.91,0,0,0,.69-2.23c.29-1.06.61-2.17,1-3.33a17.16,17.16,0,0,1,1.83-5.12,6,6,0,0,1,4.15-2,9.6,9.6,0,0,1,9.25.71,9.46,9.46,0,0,1-1.88,7,2.25,2.25,0,0,0,0,2.71,3.64,3.64,0,0,0,2.8.36,75.78,75.78,0,0,0,10-2.35q5.46-.89,11-2a46.58,46.58,0,0,1,5.67-1,24.49,24.49,0,0,0,5.68-.93l1.56-.26a7,7,0,0,1,2.13-.23,27.6,27.6,0,0,0,5.59-.8,33.45,33.45,0,0,1,5.46-.9,7.69,7.69,0,0,1,4.2-.21,2.93,2.93,0,0,1,2.26-.14,6.35,6.35,0,0,1,3.76,1.38q.53,4.16-4,4.65-3.14.39-6.09.53l-6.38.81a5.48,5.48,0,0,0-4.67,1.59,4.78,4.78,0,0,0-2.13,2.46,8.24,8.24,0,0,0-1.44,1.77c-.62,1-1.2,1.84-1.76,2.64a113.18,113.18,0,0,1-7.06,9c-.78.84-1.64,1.84-2.56,3s-.62,2,.91,2.55h3c2.06,0,4.12.07,6.17,0,1.76,0,3.53.13,5.31.31a3.55,3.55,0,0,1,3.71,1.86,3,3,0,0,1-3.28,2.41,26.18,26.18,0,0,1-6.05.76c-4,0-8-.06-11.93-.27a7.44,7.44,0,0,0-5.09,1.07,25.69,25.69,0,0,0-3.59,4.11,4.35,4.35,0,0,1-3.59,1.18A4.23,4.23,0,0,0,256.4,575.67ZM228,528a6.28,6.28,0,0,1,1.67-.27,6.56,6.56,0,0,1,2.07-.69,1.77,1.77,0,0,0,1-2.29,42.66,42.66,0,0,0-.69-5.17,10.14,10.14,0,0,1-.51-4.74l-.33,0a47.53,47.53,0,0,0-.79-7.27,2.59,2.59,0,0,0-1.58-2.1,19,19,0,0,0-2.93.25,8.77,8.77,0,0,0-2.79.46l-3.53.81a4.29,4.29,0,0,0-1.66,4.74c.39,2.52.73,5,1,7.47a46.74,46.74,0,0,0,.79,7.28c0,1.81.69,2.51,2.15,2.11a14.57,14.57,0,0,1,3.17-.16l1.45-.24A1.65,1.65,0,0,0,228,528Zm19.67-30.15a1.41,1.41,0,0,1,1.11-.18,2.08,2.08,0,0,0,1.31-.45,15.05,15.05,0,0,1,4.1-.79,19.29,19.29,0,0,0,3.7-.49,1.77,1.77,0,0,0,2.05-1.51,39.14,39.14,0,0,0-.64-4.12c-.14-1.39-.29-2.86-.46-4.4a3.41,3.41,0,0,0-4.12-2.26q-4,.88-7.82,1.87a28.22,28.22,0,0,0-3.53.81c-1.19.2-1.7.83-1.53,1.9.2,1.3.39,2.56.58,3.78a14.48,14.48,0,0,0,.68,4.36C244.12,498.65,245.65,499.15,247.66,497.87Zm9.73,25.21a6.29,6.29,0,0,1,4-1.36c1.6,0,2.3-.85,2.13-2.47-.35-1.74-.72-3.44-1.13-5.1a56.71,56.71,0,0,1-.83-6.1,31.3,31.3,0,0,0-.6-5.31q-3.89-3-9-.52c-1.71.28-3.36.47-4.94.57a2.81,2.81,0,0,0-3,2.14,12.59,12.59,0,0,0,.7,3.76c.19,2.25.41,4.4.66,6.48s.28,3.79.4,5.57a3.11,3.11,0,0,0,1.7,3.61,8.71,8.71,0,0,0,3.9-.64A17.38,17.38,0,0,1,257.39,523.08Zm3.23,37.79a4.13,4.13,0,0,1,1.18-1.25A13.89,13.89,0,0,0,263,557.9a29.25,29.25,0,0,1,3.35-4.2c1.08-1.35,2.12-2.74,3.12-4.15a34.63,34.63,0,0,0,3-4.37,1.83,1.83,0,0,0,.44-2.31,10.2,10.2,0,0,0-5.23.86,37,37,0,0,1-5.76,1.18c-2,.41-4,.74-6,1q-2.55.52-5,1.16a6.27,6.27,0,0,0-3.8,2,15.71,15.71,0,0,0-1.85,5,11.3,11.3,0,0,0-1.13,5.24,1.69,1.69,0,0,0,2,1.56,5,5,0,0,1,2,.61,3.31,3.31,0,0,0,2.15-.12,15.88,15.88,0,0,1,5.1.46A9.52,9.52,0,0,0,260.62,560.87Zm30-43.35a2.75,2.75,0,0,0,1.63-2.74c-.11-1.7-.3-3.47-.59-5.31a36.38,36.38,0,0,0-1.09-5.58,28.52,28.52,0,0,1-1-5c-.16-1.54-1-2.1-2.55-1.69a27.19,27.19,0,0,1-4.93.57,38.93,38.93,0,0,1-5.15.73,2.66,2.66,0,0,0-3,1.54,10,10,0,0,0,.63,5.54q1,5.49,1.45,10.81a2.47,2.47,0,0,0,1.54,2.57,4.94,4.94,0,0,0,2.77-.57c1.5-.17,3-.3,4.62-.4l2.79-.46Z"/><path d="M227.28,668.72q-2.1-1.77-1-4.89a33.84,33.84,0,0,0-.63-5.54c-.25-2.08-.43-4.2-.53-6.38-.66-4.2-1.23-8.42-1.74-12.65a31.74,31.74,0,0,0-.81-6,4.49,4.49,0,0,1-.5-4.73,2.93,2.93,0,0,0,.66-1.64,2.61,2.61,0,0,1,1.4-1.29,33.75,33.75,0,0,1,4.62-1.11l5.76-1.18a53.52,53.52,0,0,0,6.11-1.12q6-1.44,12.05-2.68a10,10,0,0,0,2.54-.53,13.24,13.24,0,0,1,2.3.09,6.36,6.36,0,0,1,4.92,0,9.83,9.83,0,0,1,1.35,8,79.9,79.9,0,0,0,1.6,12.55c.67,4.29,1.22,8.58,1.66,12.9a52.26,52.26,0,0,0,.59,6,6.16,6.16,0,0,1-.14,4.26,8.28,8.28,0,0,1-6.64,1.44,15.7,15.7,0,0,1-5.41-.29,20.08,20.08,0,0,0-5.69-.59q-3,.38-5.8,1a7.39,7.39,0,0,0-4.68,1.47,5.64,5.64,0,0,1-4.21,1.63,15.23,15.23,0,0,1-5.94.74Zm26.21-10.06q-.06-4.8-.47-9.68-.72-6.11-1.71-12.53a38.5,38.5,0,0,1-.67-5.77,8.83,8.83,0,0,0-.63-5.54,3.6,3.6,0,0,0-3.47-.25q-3,.6-5.88,1.08a9.61,9.61,0,0,0-4.64,1.82,5.16,5.16,0,0,0,0,4.46,162.1,162.1,0,0,1,2.59,24.85,4.21,4.21,0,0,0,.91,2.91,5.63,5.63,0,0,0,4.53-.27c1.64-.19,3.32-.43,5-.71a13.78,13.78,0,0,1,2.49-.17A2.35,2.35,0,0,0,253.49,658.66Zm25.5-25a2.39,2.39,0,0,0-2,.33,6.73,6.73,0,0,1-2.28,0,34.13,34.13,0,0,1-5.61.69q-3-.91-1.73-4.54a88.52,88.52,0,0,0,.23-22.13c-.32-4-.66-8.16-1-12.42a3.4,3.4,0,0,1,1.58-3.78c1.45-.48,3-.92,4.59-1.35l4.95-1.28a2.77,2.77,0,0,1,3.4,2A30.78,30.78,0,0,1,281,596q0,3.28.1,6.56a13,13,0,0,0,.37,5.35c.92,1.49,2.23,1.83,3.93,1a12.08,12.08,0,0,0,2.37-.15c.88-.22,1.79-.49,2.74-.8,1.94-.24,3.91-.57,5.9-1l2,.14c.81-.13,1.63-.3,2.43-.51a35.06,35.06,0,0,1,5.58-1.62l5.72-.7a14.07,14.07,0,0,1,4.77-.2,2.52,2.52,0,0,1,1.72,3,5,5,0,0,1-4.47,2.14q-6.11.42-12.14,1.29a108.65,108.65,0,0,1-12.29,1.78c-2,.25-4,.46-5.85.61a2.27,2.27,0,0,0-2.13,2.46q0,3.17.16,6.21c-.14,2.06-.2,4.14-.17,6.26Q282.76,632.23,279,633.67Zm31,52.52a19.52,19.52,0,0,0-5.16.62c-1,.15-1.9.27-2.81.34-1,.24-2.06.45-3.1.62l-5.87.5a57,57,0,0,1-6.25.9,15,15,0,0,1-9.53-1.73A7.65,7.65,0,0,1,275,679a22.16,22.16,0,0,1,2-4.91q1.28-2.79,2.66-5.72a29.66,29.66,0,0,1,3.22-4.29A20.72,20.72,0,0,0,284,662c.56-.79,1.16-1.6,1.8-2.41.92-1.4,1.91-2.86,3-4.36l3.66-4.37q1.74-2,3.72-4c1.3-1.46,2.54-3,3.74-4.61a4,4,0,0,1,2.18-1.41,4.07,4.07,0,0,0,1.87-1.25q-3,.38-5.8.95l-6.12.3c-2,.16-3.86.4-5.72.7a6.3,6.3,0,0,0-2.27.85,15.38,15.38,0,0,1-3.25.41,30.53,30.53,0,0,1-5.41-.29,2.33,2.33,0,0,1-2.85-1.41,5.54,5.54,0,0,1,4.34-2.24,45.86,45.86,0,0,1,4.57-.75q3.14-.39,6.29-.68,6-.75,12.13-2.11,2.81-.33,5.81-.83a54.23,54.23,0,0,0,6.08-1.35q3-.37,6-.63a5.88,5.88,0,0,1,4.3.47c1.58,2.33,1,4.19-1.66,5.57a46,46,0,0,0-7.92,6.35q-4.47,4.38-8.53,9.16c-1.35,1.55-2.64,3.1-3.85,4.63a5.25,5.25,0,0,1-2.6,3.13,1.79,1.79,0,0,1-.7,1.4,6.39,6.39,0,0,0-1.4,2q-1.62,2.85-3.25,5.59a14.33,14.33,0,0,0-2.85,9.63,6.45,6.45,0,0,0,6.92,3.33A77.28,77.28,0,0,0,308,682.52a8.74,8.74,0,0,0,9-3.83,7.24,7.24,0,0,0,.09-4.6c-.86-1.58-.48-2.59,1.13-3a38.62,38.62,0,0,0,5.11-1,16.63,16.63,0,0,1,5.46-.9,3.09,3.09,0,0,1,2.34,2.56q.65,2.72,1.08,5.46-1.32,6.33-8.17,6.28a65.66,65.66,0,0,0-6.67,1.21A62,62,0,0,1,310,686.19Z"/><path d="M249,806.45a2.27,2.27,0,0,1-1.43-3.29,8.69,8.69,0,0,1,4.28-1.88,92.35,92.35,0,0,0,10.61-4.56,3.89,3.89,0,0,0,2.84-2.34,14.57,14.57,0,0,0-.65-5.66,42.25,42.25,0,0,1-1.22-12.26,3.72,3.72,0,0,0-.83-3.15,2.37,2.37,0,0,0-2.17,0,11.07,11.07,0,0,1-3.12.51q-2.83.12-5.66.34a11.16,11.16,0,0,1-4.67.06c-1.75-.42-2.16-1.37-1.25-2.85a8.16,8.16,0,0,1,4.6-2,21.54,21.54,0,0,0,5.28-1.33c.78-.37,1.6-.74,2.45-1.11a17.73,17.73,0,0,0,2.9-.48q2.64-2.89.64-6.92a9.87,9.87,0,0,1,.44-3.83,1.7,1.7,0,0,0-2.17,0,66.4,66.4,0,0,1-9.77,3.36,24.18,24.18,0,0,1-5.83.73q-3.41-1.32-.85-4.8a74.35,74.35,0,0,0,5.19-10.73q2.55-5.7,5.16-11.66,1.11-2.41,2.21-4.95c.93-1.33.91-2.5-.09-3.51a7,7,0,0,0-3.73.26c-2.06.5-4.12.95-6.19,1.37-1.56.25-3.07.54-4.55.86a2.62,2.62,0,0,1-3.46-1q2.44-4.15,8.25-4.29,6.18-1.37,12.57-2.18,12-1.38,24-3.7a5.47,5.47,0,0,1,4,.16,2.68,2.68,0,0,1,0,3.76,9.49,9.49,0,0,1-4.7,1.36,33.06,33.06,0,0,1-6.11,1.12,6.38,6.38,0,0,0-4.51,1.92,32.35,32.35,0,0,0-2.24,5.42c-.87,1.79-1.65,3.6-2.36,5.44a18.77,18.77,0,0,1-1.66,2.51,8.72,8.72,0,0,0-.89,2.38l.22,0a8.3,8.3,0,0,1-1.41,2.7,14.5,14.5,0,0,0-1,3.22,13.73,13.73,0,0,0-2.12,4,29.89,29.89,0,0,0,10.28-3.68,5.23,5.23,0,0,0,3.87-1.58,4.81,4.81,0,0,0-1.49-1.52L271,740.54a3.42,3.42,0,0,1-1.7-3.6,5.87,5.87,0,0,1,4.55-1.57,15.6,15.6,0,0,0,5.87-1.2,3.63,3.63,0,0,1,3.75-.14,16.08,16.08,0,0,1,1.58,2.09,16.92,16.92,0,0,0,1.88,2.51c1.22,1.53,2.45,3,3.66,4.46,1.36,1.42,2.72,2.77,4.05,4a3.11,3.11,0,0,1,.13,3.75,7.14,7.14,0,0,1-5,1.41,9.76,9.76,0,0,1-9.11-.51,4.46,4.46,0,0,0-3.23-1.7,11.89,11.89,0,0,0-3.94,1.12c-1.66.58-3.25,1.16-4.76,1.72a2.25,2.25,0,0,0-1.46.94,2.84,2.84,0,0,0,2.23-.36,12.16,12.16,0,0,1,5.65-1.16,10.37,10.37,0,0,1,1.25,9.55,2.07,2.07,0,0,0,1.56,2.68,27.22,27.22,0,0,0,5.37-1.47,25.86,25.86,0,0,0,5.91-1,8.73,8.73,0,0,1,4.42-.25,2.54,2.54,0,0,1,1.68,2.78A2.77,2.77,0,0,1,293,767a23.4,23.4,0,0,1-3.85,1c-2.05.5-4.08,1-6.07,1.35a45,45,0,0,0-4.57.75,3.64,3.64,0,0,0-.73,4.12,54.08,54.08,0,0,0,.6,6.13q.24,3,.61,6.13c.24,1.53,1.06,1.94,2.48,1.24a40.57,40.57,0,0,0,5.8-1.66q4.93-3.51,7.86.59a5.8,5.8,0,0,1-4.54,5.33q-5.62,2.1-11.22,4.31c-1.77.84-3.56,1.64-5.34,2.41a39.69,39.69,0,0,1-5.73,2.11q-4.63,1.82-9.19,3.39a39.45,39.45,0,0,1-5.18,1.2A28.37,28.37,0,0,1,249,806.45ZM306,769.94l-2.82.23a2,2,0,0,1-2.11-.36,6.48,6.48,0,0,1-.95-4.67q-.72-6.1-1.81-12.4-.74-6.22-1.38-12.59a66.21,66.21,0,0,0-1.64-12.07,5.55,5.55,0,0,1-.49-4.62,3.79,3.79,0,0,1,3.33-1.37,19.74,19.74,0,0,0,5.52-1.26,5.67,5.67,0,0,1,4.55-.86,3.34,3.34,0,0,1,1.43,3.29,26.18,26.18,0,0,0,.46,5.92c.58,4.29,1.17,8.55,1.74,12.76q1,9.84,2.77,19.3a6.37,6.37,0,0,1-.31,6.16,7.66,7.66,0,0,1-3.66,1.43C309.13,769.24,307.59,769.61,306,769.94Zm31,32.06a10.52,10.52,0,0,0-2.27-.69c-1-.07-2-.11-2.88-.11a56.93,56.93,0,0,1-6.14.18c-1.68,0-2.5-.92-2.47-2.65a3.59,3.59,0,0,1,2.89-2q2.64-.68,5.54-1.15a2.93,2.93,0,0,0,2.8-2.57,20.66,20.66,0,0,0-1-5.6q-.51-3.21-1-6.42-.82-6.09-1.69-12.42-1.22-6.27-2.29-12.55-.85-6.21-1.73-12.65c-.45-1.89-.82-3.82-1.13-5.81s-.53-4.15-.85-6.21q-1.42-6.23-2.29-12.56-1.06-6.16-1.94-12.49.92-5.2,6.86-4.42a38.8,38.8,0,0,0,5.07-1.18,2.6,2.6,0,0,1,3.16,1.95,41.08,41.08,0,0,1,.49,5.33c.25,2.15.55,4.29.88,6.43L339,727q2,13,3.89,25.82,1.17,8.26,2.54,16.39.93,8.21,2.49,16a34.17,34.17,0,0,0,1.47,7.28,5.73,5.73,0,0,1-.39,5.59,10.57,10.57,0,0,1-5.33,2.52,12.81,12.81,0,0,1-3.8.51A4.23,4.23,0,0,0,337.06,802Z"/><path d="M1654.42,418.67a4,4,0,0,1-4-2.49,4.69,4.69,0,0,1,2.32-3.25,28.74,28.74,0,0,0,3.35-3.36q3.15-4.06,6.25-8.39,3.24-3.92,6.69-8.15Q1682,376,1694.41,358.4a56.86,56.86,0,0,0-6.08-1.75c-2.15-.74-4.37-1.42-6.64-2-2.15-.4-4.24-.75-6.26-1a14.79,14.79,0,0,1-3.2-.72,26.84,26.84,0,0,0-3.52-.94,5.34,5.34,0,0,1-2.35-.11c-.85-.31-1.68-.66-2.5-1.05a56.83,56.83,0,0,1-6.31-1.81,3.26,3.26,0,0,1-3-2.48c0-2.06,1.1-3.06,3.26-3q2.88.51,5.94,1.32c2.13.49,4.33,1,6.6,1.64a30.64,30.64,0,0,0,6,1.2l6.16,1.9q6.16,1.9,12.48,3.71,5.41-.11,7.81-5.65,3.71-5.73,8-11.17,1.8-2.61,3.61-5.36a27.45,27.45,0,0,1,3.1-5.36q3.28-2.09,7,.18a68,68,0,0,1,6.3,2.84,5.7,5.7,0,0,1,2,2.08,4.13,4.13,0,0,1-1.51,3.47,35,35,0,0,0-3.65,4.57,62.19,62.19,0,0,1-3.81,5.17,29.42,29.42,0,0,0-3.25,4.43,41.93,41.93,0,0,1-4,5,6.73,6.73,0,0,0-2.68,4.18,4.26,4.26,0,0,0,3.93,1.82l13.09,3.75a40.68,40.68,0,0,0,6.23,1.14,32.57,32.57,0,0,0,6.38,1.06l5.82.26c2.08.73,4.17,1.54,6.28,2.45a8.34,8.34,0,0,1,6.37,5.05,5.08,5.08,0,0,1-6,1.61l-8.82-1.83q-3.13-.45-6.11-1.11a64,64,0,0,1-6.66-1.91c-2.14-.48-4.22-1-6.26-1.54-2.23-.76-4.33-1.54-6.31-2.32q-2.43-1.29-3.3.67a20.17,20.17,0,0,0,1.84,5.64q2.19,6.25,4.25,12.48,3.72,13.11,7.59,26.14,1.85,6.56,4,12.93c.65,2.06,1.32,4.05,2,5.95a21.3,21.3,0,0,0,2.55,4.81q1.72,5.1-3.48,4.87a29.56,29.56,0,0,1-9.81-2.35,4.85,4.85,0,0,1-3.08-5.21,6.6,6.6,0,0,0-1.35-4.61c-.08,0-.07-.39,0-1.09s-.38-1.67-1.4-2.89a50.17,50.17,0,0,1-2-6.07c-1.4-4.07-2.68-8.24-3.87-12.51l-1.71-6.13a31,31,0,0,1-1.6-6.1,15.15,15.15,0,0,0-.63-2.49,13.79,13.79,0,0,1-1.12-2.49q-1-3.09-1.92-6.32-1.15-2.88-2-5.83a9.92,9.92,0,0,1-.92-2.82,6.58,6.58,0,0,0-.83-2.67,10.34,10.34,0,0,0-5.31,5.16q-7.69,11.1-15.75,21.72-3.54,4.61-7.14,8.93a92.36,92.36,0,0,0-6.28,8.52,34.05,34.05,0,0,1-3,4,5.7,5.7,0,0,1-3.49,2.42,9.37,9.37,0,0,1-4-.67A42.26,42.26,0,0,0,1654.42,418.67Z"/><path d="M1612.41,537.73q-4.31-.37-5.8-3.87a7.93,7.93,0,0,1,3.83-4.26q4.13-2.9,8.12-6.35a7.66,7.66,0,0,1,3.31-2.21,8.25,8.25,0,0,1,4.94.8,7.68,7.68,0,0,1,6.71,4.24,3.2,3.2,0,0,1-2.38,2.46,32.36,32.36,0,0,0-4.14,2.51,20.08,20.08,0,0,0-3.73,2.87q-1.57,1.77-2.92,3.61a2.91,2.91,0,0,1-3,1,11.47,11.47,0,0,1-2.24-.59A12.24,12.24,0,0,0,1612.41,537.73ZM1630,489.29a9.84,9.84,0,0,1-3.6-5.09,27,27,0,0,0-1.71-3.16c-.84-1-1.69-2-2.54-2.87a2.43,2.43,0,0,1,0-3,3.65,3.65,0,0,1,3.13-.45c1.17.31,2.37.67,3.61,1.09s2.71.68,4.14,1a7.22,7.22,0,0,1,4,4.67,47.34,47.34,0,0,0,4.31,6.3q1,3.77-3.09,3.31a19.65,19.65,0,0,1-3.67-1.37A12.94,12.94,0,0,0,1630,489.29Zm2.6,55.88a5.19,5.19,0,0,1-2-1.32,2.59,2.59,0,0,1-.33-2.15,25.11,25.11,0,0,1,1.7-6.77q1.56-6.67,3.62-13.35,1.88-6.47,4-13.25,1.6-6.4,3.37-12.9a53.87,53.87,0,0,0,1.2-6.26,11.24,11.24,0,0,1,1.67-6.13,8,8,0,0,1,7.86.16,52.2,52.2,0,0,1,6,2,48.2,48.2,0,0,0,6,3.14l6.34,1.69a36.87,36.87,0,0,0,5,1.47q2.83.22,2.65-3a5.22,5.22,0,0,0-.14-4.94,22.34,22.34,0,0,0-4.64-.46,48.82,48.82,0,0,1-5.85-1.17q-5.3-.37-4.58-5.22c.92-1.64,1.88-3.32,2.9-5a14.93,14.93,0,0,1,1.69-5.74,28.8,28.8,0,0,0-6.1-2.14q-1.47-.13-2.91-.39c-1.08-.37-2.06-.76-3-1.17a4.09,4.09,0,0,1-3.19-2.27,2.76,2.76,0,0,1,1.79-3.65,13,13,0,0,1,5.12.59,21.67,21.67,0,0,1,6.46,1.21,3.13,3.13,0,0,0,4,0,9.54,9.54,0,0,0,2-4.89c-.17-4,1.54-6.12,5.11-6.37l5.88,1.56a10.81,10.81,0,0,1,4,1.46,3.67,3.67,0,0,1-.27,4.06,27.75,27.75,0,0,0-2.49,5.39,3.78,3.78,0,0,0,.08,4.15,13.65,13.65,0,0,0,4.55,1.86,86,86,0,0,0,12.75,3.14,2.7,2.7,0,0,0,3.71-.82,16.07,16.07,0,0,0,.69-4.71,45.55,45.55,0,0,1,.6-5.9c.08-2,1-3,2.77-3a37,37,0,0,0,4.28,1.4,17.89,17.89,0,0,1,5.82,1.29q2.86,4.52-.26,9.48a12.7,12.7,0,0,0-1.16,5.11,3.65,3.65,0,0,0,3.19,2.78c1.84.66,3.68,1.28,5.54,1.86a4.48,4.48,0,0,1,3.36,3.09q-3.06,3.18-7.77,1a9,9,0,0,1-6-1.2,17.8,17.8,0,0,0-1.87,5.95,11.2,11.2,0,0,1-1.26,6,3.9,3.9,0,0,1-3.86.91c-2.28-.26-4.54-.57-6.79-.91a22,22,0,0,1-5.4-1.95,9.08,9.08,0,0,0-2.88-1,2.9,2.9,0,0,0-1.84,2.86,4.65,4.65,0,0,0-.13,5,8.11,8.11,0,0,0,4,1.45c2.19.59,4.44,1.1,6.75,1.55a68.63,68.63,0,0,0,12.87,2.14,21.22,21.22,0,0,1,8.63,3.07q3.33,3.21,1.12,7.52-2.65,6.51-4.67,13.07a79.52,79.52,0,0,1-3.81,12.65,30.16,30.16,0,0,0-1.61,5.89,41.22,41.22,0,0,1-1.59,6.8,43.85,43.85,0,0,0-1.35,6.34,40.15,40.15,0,0,1-.08,6.3q-3.54,4.6-9,1.47a14.88,14.88,0,0,1-8.12-4.61,2.81,2.81,0,0,1-1-2.71,7,7,0,0,1,3.67-2.12,7.28,7.28,0,0,0,1.83-4.79q.74-3.42,1.62-6.92,3.22-13.32,7.55-26.49,1-2.84,1.84-5.83a3.78,3.78,0,0,0-.79-3.82,10.28,10.28,0,0,0-3.38-1,32.91,32.91,0,0,1-5.52-1.47q-3.16-.84-6.08-1.75a6.21,6.21,0,0,0-4.73-.61,8.19,8.19,0,0,0-2.9,6.06q-3.62,12.84-7.1,25.7-1.41,6.59-2.47,13.27c-.29,1.81-.65,3.61-1.1,5.38a3.54,3.54,0,0,1-4,1.63,26.88,26.88,0,0,1-7.79-.92q-4.06-3.27-1.34-8.61,3.38-13.41,6.49-26.76,1.93-6.71,3.91-13.53l1.51-5c.21-1.83-.63-2.79-2.53-2.86a27.59,27.59,0,0,1-5.12-1.11l-5.11-1.1q-4.58-2.25-7,1.48a77.87,77.87,0,0,0-2.46,9.27q-1.7,5.75-3.53,11.57Q1648,527.63,1645.8,539c-.29,3.45-1.88,5.64-4.79,6.59a15.65,15.65,0,0,1-4.83-.26A6.32,6.32,0,0,0,1632.59,545.17Zm12.49-86.42a37.47,37.47,0,0,1-4.23-1.64,4.73,4.73,0,0,1-3.21-2.66,41.07,41.07,0,0,0-4.48-7.13q-2.57-2.22-1.05-4.79a10.92,10.92,0,0,1,4,.55,16.64,16.64,0,0,1,4.32,1.28,9.35,9.35,0,0,1,5.94,4.29,27.12,27.12,0,0,0,2.17,3.8,15.25,15.25,0,0,0,2.3,2.81q2.31,2.81-.8,4.17A31.6,31.6,0,0,1,1645.08,458.75Zm14.8,78.09c-2.26-1.29-3.08-3.35-2.45-6.2.49-2.27.2-3.77-.87-4.48a13.51,13.51,0,0,0-1.54,4.1q-1.17,3.16-4.14,3c-1.85-2.3-1.6-4.76.74-7.41,1-1.81,2-3.65,3-5.51a58.23,58.23,0,0,0,2.91-6.06,25.23,25.23,0,0,0-.59-10.61q-1.08-4.67,3.49-5.39,4,.94,4,5.46a26.86,26.86,0,0,0,0,4.39,29,29,0,0,1-.38,6,56.76,56.76,0,0,0,0,12.63Q1666.09,534.63,1659.88,536.84ZM1693,481.69a18.69,18.69,0,0,1,4.41.41,4.33,4.33,0,0,0,4.12.06,14.88,14.88,0,0,0,1.85-7.37,6.71,6.71,0,0,0-5.16-2.41l-4.46-1.19-5.11-1.1a10.94,10.94,0,0,0-5.24-.62,2.59,2.59,0,0,0-1.74,1.47,24.09,24.09,0,0,0-1.66,4.59q1.08,4.16,6,4a41.19,41.19,0,0,1,4.23,1.13A3,3,0,0,0,1693,481.69Zm-9.76,62.14q-2.54-3.39.24-6.9,3.39-5,6.65-10.48a19.55,19.55,0,0,0,1.12-12,7.76,7.76,0,0,1,.33-6.75q4.58-1.74,6.8,2.84a21.31,21.31,0,0,1,.1,5.58q0,3.36-.14,6.53a4.21,4.21,0,0,0-.29,2.64,2.75,2.75,0,0,1,.57,2.21,30.18,30.18,0,0,0,.06,6.72,18,18,0,0,0,.48,3.1,10.57,10.57,0,0,0,.1,2.6,5.64,5.64,0,0,1-.43,5.17,4.07,4.07,0,0,1-5.3.65,6.75,6.75,0,0,1-1.4-5.91,1.68,1.68,0,0,0-.57-1.7,3.87,3.87,0,0,0-2.2,2.25,6.52,6.52,0,0,1-2.73,2.88A10.11,10.11,0,0,1,1683.19,543.83Z"/><path d="M1577.27,662.87q-2.12-4.05,2.26-7a76.23,76.23,0,0,0,9.44-9.09,86.73,86.73,0,0,1,8.43-9.1,20.18,20.18,0,0,0,4.09-3.81,51.76,51.76,0,0,1,3.92-4.11,8.79,8.79,0,0,1,3.59-3.82,10.67,10.67,0,0,1,5,1.08l5.28,1.92a3.46,3.46,0,0,1,3,3.39,19.06,19.06,0,0,1-3.33,3.75c-1.56,1.56-3,3.11-4.42,4.63-1.22.87-2.44,1.71-3.64,2.51-1,1.46-.5,2.49,1.36,3.07q2.19,1.74,4.53,3.4a58.13,58.13,0,0,0,5.77,3l2.82,1.27a10.66,10.66,0,0,0,1.67,1.35c1.7-.49,2.61-1.76,2.7-3.79a121.19,121.19,0,0,1,6.25-25.29,3.84,3.84,0,0,0,0-4,7.21,7.21,0,0,0-4.9-1.43,103.49,103.49,0,0,1-13-3.08,63.46,63.46,0,0,1-12.15-3,3.45,3.45,0,0,1-2.8-3.32,3.91,3.91,0,0,1,1.49-1.93,6.42,6.42,0,0,0,1.46-2.83q1.11-5.9,2.33-11.76,1-6.17,2.29-12.54c.34-2.06.69-4.11,1-6.17a8.28,8.28,0,0,1,1.18-4.71,4.35,4.35,0,0,1,4.34-.78c.8.13,1.65.23,2.55.29a10.51,10.51,0,0,1,2.53-.09l10.69,3.36,2.94.78,2.82.75a54,54,0,0,1,6,1.72q2.84.63,5.66,1.38c.84.31,1.74.59,2.68.84a8.93,8.93,0,0,0,2.49,1.05l2.59-.34a10.5,10.5,0,0,0,2.35,1.14,6.78,6.78,0,0,1,4.14,1,7.56,7.56,0,0,1,5,.83c1.94.6,3.93,1.13,6,1.59a65.78,65.78,0,0,0,6.79,1.43,30.38,30.38,0,0,1,5.78,1.92,12,12,0,0,0,2.9.91,6.93,6.93,0,0,1,3,1.05,4.31,4.31,0,0,1,.46,4.12c-.18,1.07-.35,2.06-.49,3-.33,1.29-.64,2.54-.94,3.74-1.24,4.57-2.53,9.05-3.88,13.41a96.8,96.8,0,0,0-4,13.11q0,5.92-4.86,7.86a28.51,28.51,0,0,1-8.17-1.92,10.15,10.15,0,0,1-3.38-1,14.83,14.83,0,0,1-3.69-1.24c-.34.34-.7.28-1.09-.16a2.82,2.82,0,0,0-2.23-.6,9.32,9.32,0,0,1-2.88-1c-1.1-.3-2.2-.55-3.32-.76a4.27,4.27,0,0,0-4-.94,6.59,6.59,0,0,0-1.36,3.89,7.74,7.74,0,0,1-1,2.32,14.86,14.86,0,0,0-.91,3.12c-1,1.78-.69,3.08,1,3.88q6.22,2.17,12.42,3.95c1.95.52,3.92,1,5.9,1.45l5.39,2.47q1.53.4,2.91.9a3.36,3.36,0,0,1,2.17,1.35,3.32,3.32,0,0,1-.54,4.11,4,4,0,0,1-4.2-.21c-2.06-.81-4.1-1.65-6.13-2.54-1-.35-2-.66-3-.94a10.83,10.83,0,0,0-2.67-.84,27.93,27.93,0,0,1-6.22-1.65,24.78,24.78,0,0,1-5.31-1.81,4,4,0,0,0-3.65-.45,5.18,5.18,0,0,0-1,2.32c-.27,1-.52,2-.76,3-.47,2.2-1,4.38-1.53,6.56a5.53,5.53,0,0,0,0,5.14,10.25,10.25,0,0,0,4.78,2.44q5.68,2.81,11.54,5.91t12.11,5.68a46,46,0,0,1,5.48,2.62c1.68,1,3.41,1.9,5.19,2.8a3,3,0,0,1,1.44,3.74,2.89,2.89,0,0,1-4.16,1.08l-2.23-1.11q-1.44-.26-2.85-.63a59.19,59.19,0,0,1-6.42-2.36,13.17,13.17,0,0,1-4.89-3,51.56,51.56,0,0,0-5.24-3.58q-5.74-3.09-11.64-5.56a99.21,99.21,0,0,1-12.16-5.94,52.87,52.87,0,0,0-5.6-2.66,25.3,25.3,0,0,1-5.83-3.23q-2.64-1.47-5.45-2.74c-1.92-1-3.78-2.08-5.6-3.17l-5.51-2.5a3.61,3.61,0,0,0-4.51,1q-1.9,2.08-3.68,4.18c-1.49,1.58-2.92,3.13-4.31,4.65a11.39,11.39,0,0,1-3.33,3.76,3.47,3.47,0,0,1-4.38-.52,5,5,0,0,0-4-.82A5.86,5.86,0,0,0,1577.27,662.87Zm90.65-37a2.55,2.55,0,0,0,3.1-.85q.84-3.37,1.7-6.77c.64-1.89,1.27-3.87,1.87-5.94a42.1,42.1,0,0,1,1.89-7c.66-2,1.32-4,2-5.92a13.8,13.8,0,0,0,1.1-5.89,3.62,3.62,0,0,0-2.86-2.57q-3.29-.88-6.4-2a50.22,50.22,0,0,0-5.78-1.93l-6.59-.73a87.69,87.69,0,0,1-12.8-3.41q-6.72-1.66-13.3-3.41a9.19,9.19,0,0,0-4.71-.74,5.43,5.43,0,0,0-2.09,4.34q-1.45,8.25-3,16.48-1,3.86-2.07,7.7-1.82,3.25.67,5.33a22.21,22.21,0,0,0,4.64,1q4,.95,8.07,2.28,3.76,1,7.46,1.73a32.29,32.29,0,0,0,3.82,1.28,6.34,6.34,0,0,0,3.2.72,2.18,2.18,0,0,0,2.32,1.26l6,2.11,3.06.82,3.52.94A7.42,7.42,0,0,0,1667.92,625.9Z"/><path d="M1602.41,797a9.69,9.69,0,0,0-4.58-1.73,4.86,4.86,0,0,1,.77-4.57,17.6,17.6,0,0,1,2.48-7.85,6.7,6.7,0,0,1,5.69-.67,3.47,3.47,0,0,1,4.33,2.7,22.62,22.62,0,0,1-1.9,5,21.79,21.79,0,0,1-1.34,6.34A4.91,4.91,0,0,1,1602.41,797Zm1.95-22.17a3.45,3.45,0,0,1-.09-3.64c.41-2.29.9-4.57,1.47-6.82q1.69-6.78,3.4-13.54t3.32-13.69q1.56-6.68,3.29-13.56c.45-2.12,1-4.26,1.5-6.44s1.07-4.57,1.73-6.88a5.9,5.9,0,0,1,1.75-5,6.17,6.17,0,0,1,3.53.42,4.68,4.68,0,0,1,4.82,4.25q-1.08,6.81-2.7,13.21-.54,4.11-1.27,8l-2.42,7.61-4.14,16.43q-1,3.87-1.94,7.74a47.26,47.26,0,0,0-2.08,8.73,3.59,3.59,0,0,1-2.91,3.61A42.09,42.09,0,0,1,1604.36,774.82Z"/></g></g></svg>