<svg xmlns="http://www.w3.org/2000/svg" viewBox="0 0 30.74 40.78"><defs><style>.cls-1{fill:#bee4f5;}</style></defs><title>資產 1</title><g id="圖層_2" data-name="圖層 2"><g id="圖層_1-2" data-name="圖層 1"><path class="cls-1" d="M28.77,4.36V35.71c0,2.19-1.18,4-2.62,4H4.72c-1.44,0-2.6-1.79-2.6-4V9.49c0-1.12.6-2,1.34-2H6.58V4.36c0-1.12.6-2,1.35-2H27.42C28.17,2.32,28.77,3.24,28.77,4.36Z"/><path d="M29.19,0H6.7C5.84,0,5.15,1,5.15,2.22V5.6H1.55C.7,5.6,0,6.6,0,7.83V36.45c0,2.38,1.34,4.31,3,4.33H19c.25,0,.45-.29.45-.64s-.2-.65-.45-.65H5.17a5.4,5.4,0,0,0,.88-3V21.35c0-.35-.21-.64-.45-.64s-.45.29-.45.64v15.1c0,1.67-1,3-2.12,3H3c-1.17,0-2.12-1.36-2.12-3V7.83c0-.52.29-.94.65-.94h3.6V18.94c0,.36.2.65.45.65s.45-.29.45-.65V2.22c0-.51.29-.93.65-.93H29.19c.36,0,.65.42.65.93V36.45c0,1.68-.95,3-2.13,3H20.63c-.25,0-.45.29-.45.65s.2.64.45.64h7.08c1.67,0,3-1.94,3-4.33V2.22C30.74,1,30,0,29.19,0Z"/><path d="M9.86,25.76H16c.59,0,1.07-.69,1.07-1.53V15.38c0-.84-.48-1.53-1.07-1.53H9.86c-.58,0-1.06.69-1.06,1.53v8.85C8.8,25.07,9.28,25.76,9.86,25.76ZM9.7,15.38c0-.13.07-.24.16-.24H16c.09,0,.17.11.17.24v8.85c0,.13-.08.24-.17.24H9.86c-.09,0-.16-.11-.16-.24Z"/><path d="M18.74,15.14H27.1c.25,0,.45-.29.45-.64s-.2-.65-.45-.65H18.74c-.25,0-.45.29-.45.65S18.49,15.14,18.74,15.14Z"/><path d="M18.74,20.45H27.1c.25,0,.45-.29.45-.65s-.2-.64-.45-.64H18.74c-.25,0-.45.29-.45.64S18.49,20.45,18.74,20.45Z"/><path d="M18.74,25.76H27.1c.25,0,.45-.29.45-.65s-.2-.64-.45-.64H18.74c-.25,0-.45.29-.45.64S18.49,25.76,18.74,25.76Z"/><path d="M9.25,31.07H27.1c.25,0,.45-.29.45-.65s-.2-.64-.45-.64H9.25c-.25,0-.45.29-.45.64S9,31.07,9.25,31.07Z"/><path d="M9.25,36.38H27.1c.25,0,.45-.29.45-.65s-.2-.64-.45-.64H9.25c-.25,0-.45.28-.45.64S9,36.38,9.25,36.38Z"/><path d="M8.81,10.55V3.73A.41.41,0,0,1,9,3.4a.61.61,0,0,1,.74,0A1.78,1.78,0,0,1,10,4l1.41,3.92V3.71a.37.37,0,0,1,.14-.31.58.58,0,0,1,.68,0,.37.37,0,0,1,.14.31v6.84a.37.37,0,0,1-.15.31.48.48,0,0,1-.33.12.58.58,0,0,1-.55-.43L9.76,6.32v4.23a.37.37,0,0,1-.14.31.5.5,0,0,1-.33.12A.5.5,0,0,1,9,10.86.4.4,0,0,1,8.81,10.55Z"/><path d="M13.25,10.55V3.73a.42.42,0,0,1,.12-.32.4.4,0,0,1,.29-.12h2.61a.25.25,0,0,1,.23.18,1.07,1.07,0,0,1,.07.41.94.94,0,0,1-.08.43c0,.12-.12.18-.22.18H14.2v2.1h1.11a.24.24,0,0,1,.22.17.76.76,0,0,1,.08.38.86.86,0,0,1-.07.36.25.25,0,0,1-.23.17H14.2V9.78h2.07c.1,0,.17.06.22.18a.94.94,0,0,1,.08.43,1.07,1.07,0,0,1-.07.41.25.25,0,0,1-.23.18H13.66a.4.4,0,0,1-.29-.12A.41.41,0,0,1,13.25,10.55Z"/><path d="M17.05,3.84a.48.48,0,0,1,.2-.38.64.64,0,0,1,.41-.17.29.29,0,0,1,.31.28l1.16,5.69.63-3.65a.47.47,0,0,1,.93,0l.62,3.65,1.16-5.69a.3.3,0,0,1,.31-.28.62.62,0,0,1,.41.17.46.46,0,0,1,.2.38.62.62,0,0,1,0,.13l-1.45,6.61a.57.57,0,0,1-.63.46.67.67,0,0,1-.39-.12.5.5,0,0,1-.22-.34l-.46-2.84-.48,2.84a.53.53,0,0,1-.21.34.7.7,0,0,1-.4.12.68.68,0,0,1-.4-.12.5.5,0,0,1-.22-.34L17.07,4A.69.69,0,0,1,17.05,3.84Z"/><path d="M23.63,9.77a1.12,1.12,0,0,1,.13-.49c.09-.16.18-.25.29-.25a.35.35,0,0,1,.22.13,3.25,3.25,0,0,1,.23.29,1,1,0,0,0,.33.29.85.85,0,0,0,.47.13.8.8,0,0,0,.59-.23A.93.93,0,0,0,26.12,9a1.2,1.2,0,0,0-.47-1,4,4,0,0,0-.45-.32,5,5,0,0,1-.51-.34,3.72,3.72,0,0,1-.46-.43,1.7,1.7,0,0,1-.34-.63,3,3,0,0,1-.12-.89,3,3,0,0,1,.15-1,1.65,1.65,0,0,1,.43-.67,1.78,1.78,0,0,1,.56-.36,1.91,1.91,0,0,1,.64-.11,1.94,1.94,0,0,1,.4,0,3,3,0,0,1,.45.12.91.91,0,0,1,.39.27.68.68,0,0,1,.15.43,1.26,1.26,0,0,1-.1.49c-.07.17-.16.25-.28.25a1.37,1.37,0,0,1-.36-.2,1.16,1.16,0,0,0-.65-.2.79.79,0,0,0-.61.22.77.77,0,0,0-.22.59.83.83,0,0,0,.18.53,1.41,1.41,0,0,0,.43.37c.17.09.36.21.57.35a5.15,5.15,0,0,1,.56.47,2,2,0,0,1,.44.73,3.47,3.47,0,0,1,.17,1.12,2.58,2.58,0,0,1-.48,1.67,1.55,1.55,0,0,1-1.26.58,1.8,1.8,0,0,1-1.2-.41A1.16,1.16,0,0,1,23.63,9.77Z"/></g></g></svg>