<svg xmlns="http://www.w3.org/2000/svg" viewBox="0 0 35.2 42.64"><defs><style>.cls-1{fill:#221714;}.cls-2{fill:#fff;}.cls-3{fill:#ad2126;}</style></defs><title>資產 5</title><g id="圖層_2" data-name="圖層 2"><g id="圖層_1-2" data-name="圖層 1"><path class="cls-1" d="M22.25,31.82c3.33-6,7.53-14.34,7.53-18.64C29.78,5.91,24.31,0,17.59,0S5.4,5.91,5.4,13.18c0,4.3,4.2,12.68,7.53,18.64C9,32.15,0,33.3,0,37.14s9.12,5.5,17.6,5.5,17.6-1.72,17.6-5.5-9-5-13-5.32Z"/><path class="cls-2" d="M17.59,40.82c-10.3,0-15.91-2.43-15.91-3.69,0-1,3.7-3,12.24-3.57,1.6,2.79,2.82,4.76,3,5a.82.82,0,0,0,1.39,0c.17-.22,1.38-2.21,3-5,8.54.53,12.24,2.6,12.24,3.57,0,1.26-5.62,3.69-15.92,3.69Z"/><polygon class="cls-3" points="7.08 13.18 7.08 13.18 7.08 13.18 7.08 13.18"/><ellipse class="cls-2" cx="17.59" cy="13.18" rx="3.63" ry="3.92"/><path class="cls-3" d="M28.11,13.18c0-6.27-4.72-11.37-10.52-11.37S7.08,6.91,7.08,13.18c0,5.47,8.06,19.2,10.51,23.24C20,32.38,28.11,18.65,28.11,13.18Zm-15.83,0a5.54,5.54,0,0,1,5.31-5.74,5.54,5.54,0,0,1,5.31,5.74,5.54,5.54,0,0,1-5.31,5.73A5.54,5.54,0,0,1,12.28,13.18Z"/></g></g></svg>