<svg xmlns="http://www.w3.org/2000/svg" viewBox="0 0 30.53 52.24"><defs><style>.cls-1{fill:#e73828;}.cls-2{fill:#231815;}.cls-3{fill:#fff;}.cls-4{fill:#eb6847;}.cls-5{opacity:0.5;}.cls-6{fill:#b8798d;}</style></defs><title>資產 2</title><g id="圖層_2" data-name="圖層 2"><g id="圖層_1-2" data-name="圖層 1"><path class="cls-1" d="M29.83,35.34c0,1.3-3.28,3.81-5.87,5.76-1.81,1.37-3.32,2.46-3.2,2.65A21,21,0,0,1,17.59,43c-.72-.26-1.3-.56-1.39-.9-.16-.71-.35-1.43-.54-2.16l-.45-1.67a8.29,8.29,0,0,0,4.39-1.31c1.65-1.07,1.62-5.53-.87-4.73a7.68,7.68,0,0,1-5.3.19c-.51-1.58-1-3.14-1.59-4.65a8.37,8.37,0,0,0,3.56-1.06c1.84-1,3.13-5.36-1.69-5a13.13,13.13,0,0,1-4.1.2A37.55,37.55,0,0,0,6.17,15c-.28-.37,12.56-6.84,12.6-8.39l.27.09,3.42,1.12s.6,1.59,1.47,4c.62,1.74,1.37,3.91,2.12,6.27.58,1.79,1.16,3.7,1.68,5.58h0a2.57,2.57,0,0,1-.32,1.12c-.2.35-1.05.4-1.39,1.66-.23.86.12,2.5.92,2.86a2.41,2.41,0,0,0,2.11-.39A28.46,28.46,0,0,1,29.83,35.34Z"/><path class="cls-2" d="M20.76,44.34h-.1a25,25,0,0,1-3.27-.82c-1.08-.39-1.62-.79-1.75-1.31-.17-.7-.35-1.42-.54-2.15l-.45-1.66a.6.6,0,0,1,.1-.52.58.58,0,0,1,.49-.22,7.66,7.66,0,0,0,4-1.22A3,3,0,0,0,20,33.17a.74.74,0,0,0-1.05-.42,8.25,8.25,0,0,1-5.65.19.58.58,0,0,1-.37-.38c-.48-1.46-1-3-1.59-4.63a.6.6,0,0,1,.07-.52.57.57,0,0,1,.45-.26,7.71,7.71,0,0,0,3.31-1,2.9,2.9,0,0,0,1.29-2.86c-.3-1-1.61-1.09-2.65-1l-.91.12a9.58,9.58,0,0,1-3.34.07.56.56,0,0,1-.44-.35,37.15,37.15,0,0,0-3.36-6.8.61.61,0,0,1-.11-.49c.08-.4.23-.53,4-2.72,2.65-1.52,8.15-4.68,8.56-5.59a.55.55,0,0,1,.24-.41A.57.57,0,0,1,19,6.05l3.68,1.21a.59.59,0,0,1,.36.35s.62,1.61,1.48,4c.77,2.15,1.48,4.26,2.13,6.28s1.2,3.85,1.68,5.6a.45.45,0,0,1,0,.16.13.13,0,0,1,0,.06,3.2,3.2,0,0,1-.39,1.35,1.53,1.53,0,0,1-.55.5,1.5,1.5,0,0,0-.79,1c-.19.7.17,2,.6,2.18a1.89,1.89,0,0,0,1.55-.34.58.58,0,0,1,.54-.06.59.59,0,0,1,.35.42,28.93,28.93,0,0,1,.79,6.55h0c-.06,1.38-2.28,3.32-6.1,6.2l-.66.49c-1,.73-2,1.54-2.33,1.84a.48.48,0,0,1-.08.18A.59.59,0,0,1,20.76,44.34Zm.5-.89Zm0,0Zm-4.5-1.56a2.54,2.54,0,0,0,1,.52,20.82,20.82,0,0,0,2.69.7,24.18,24.18,0,0,1,2.47-2l.66-.49c1.39-1,5.59-4.21,5.63-5.32h0a24.77,24.77,0,0,0-.61-5.52,2.53,2.53,0,0,1-1.93.07c-1.13-.52-1.53-2.48-1.24-3.55a2.67,2.67,0,0,1,1.29-1.71l.18-.11a2.44,2.44,0,0,0,.22-.76c-.48-1.71-1-3.54-1.65-5.46S24.15,14.17,23.38,12c-.65-1.84-1.16-3.21-1.37-3.75l-3-1c-.86,1.13-3.61,2.83-8.85,5.83-1.25.72-2.64,1.52-3.27,1.93A42.65,42.65,0,0,1,10,21.4a9.4,9.4,0,0,0,2.65-.13c.35-.05.67-.1,1-.13,2.81-.24,3.62,1,3.86,1.83a4,4,0,0,1-1.84,4.21,9.1,9.1,0,0,1-3,1.05c.45,1.28.87,2.51,1.25,3.69a7.19,7.19,0,0,0,4.66-.28,1.89,1.89,0,0,1,2.45,1c.66,1.39.29,3.85-1.09,4.74A9.42,9.42,0,0,1,16,38.8c.08.32.17.64.25,1C16.41,40.48,16.6,41.2,16.76,41.89ZM18.19,6.58Z"/><path class="cls-3" d="M19.6,36.92a8.29,8.29,0,0,1-4.39,1.31l.45,1.67C2.45,35.93,2.24,12.66,2.24,12.66S.38,12.44.6,10.89,2.44,9.66,2.44,9.66s2.24-7.09,7.78-7.35a7.84,7.84,0,0,1,3,.49,16.53,16.53,0,0,1,5.51,3.56c.1.1.21.21.31.33l-.27-.09c0,1.55-12.88,8-12.6,8.39a37.55,37.55,0,0,1,3.44,6.93,13.13,13.13,0,0,0,4.1-.2c4.82-.41,3.53,3.94,1.69,5a8.37,8.37,0,0,1-3.56,1.06c.54,1.51,1.08,3.07,1.59,4.65a7.68,7.68,0,0,0,5.3-.19C21.22,31.39,21.25,35.85,19.6,36.92Z"/><path class="cls-2" d="M15.66,40.48a.47.47,0,0,1-.17,0c-5.6-1.68-9.77-7.05-12-15.52A55.4,55.4,0,0,1,1.68,13.13,2.53,2.53,0,0,1,.39,12.3,1.93,1.93,0,0,1,0,10.81,2,2,0,0,1,.76,9.49,2.38,2.38,0,0,1,2,9.06c.6-1.58,3-7.09,8.16-7.33a8.56,8.56,0,0,1,3.23.52,17.53,17.53,0,0,1,5.7,3.68,3.37,3.37,0,0,1,.37.39.59.59,0,0,1,0,.7.62.62,0,0,1-.43.25c-.82,1.13-3.58,2.83-8.88,5.87-1.25.72-2.64,1.52-3.27,1.93A42.65,42.65,0,0,1,10,21.4a9.4,9.4,0,0,0,2.65-.13c.35-.05.67-.1,1-.13,2.81-.24,3.62,1,3.86,1.83a4,4,0,0,1-1.84,4.21,9.1,9.1,0,0,1-3,1.05c.45,1.28.87,2.51,1.25,3.69a7.19,7.19,0,0,0,4.66-.28,1.89,1.89,0,0,1,2.45,1c.66,1.39.29,3.85-1.09,4.74h0A9.42,9.42,0,0,1,16,38.8c.08.32.17.64.25,1a.58.58,0,0,1-.16.56A.55.55,0,0,1,15.66,40.48ZM2.14,10.22a.87.87,0,0,0-1,.75.8.8,0,0,0,.13.61,1.67,1.67,0,0,0,1,.5.6.6,0,0,1,.51.57c0,.23.34,21.67,12,26.34-.05-.2-.11-.4-.16-.6a.6.6,0,0,1,.1-.52.58.58,0,0,1,.49-.22,7.66,7.66,0,0,0,4-1.22h0A3,3,0,0,0,20,33.17a.74.74,0,0,0-1.05-.42,8.25,8.25,0,0,1-5.65.19.58.58,0,0,1-.37-.38c-.48-1.46-1-3-1.59-4.63a.6.6,0,0,1,.07-.52.57.57,0,0,1,.45-.26,7.71,7.71,0,0,0,3.31-1,2.9,2.9,0,0,0,1.29-2.86c-.3-1-1.61-1.09-2.65-1l-.91.12a9.58,9.58,0,0,1-3.34.07.56.56,0,0,1-.44-.35,37.15,37.15,0,0,0-3.36-6.8.61.61,0,0,1-.11-.49c.08-.4.23-.53,4-2.72,2.57-1.47,7.83-4.49,8.51-5.51A16,16,0,0,0,13,3.35a7.24,7.24,0,0,0-2.78-.46C5.18,3.13,3,9.76,3,9.83a.57.57,0,0,1-.63.4Z"/><rect class="cls-4" x="19.43" y="10.98" width="4.54" height="0.84" rx="0.37" transform="translate(4.06 -5.62) rotate(16.25)"/><rect class="cls-4" x="13.63" y="15.39" width="9.52" height="0.84" rx="0.37" transform="translate(5.16 -4.51) rotate(16.25)"/><rect class="cls-4" x="12.56" y="21.88" width="15.21" height="0.84" rx="0.37" transform="translate(7.04 -4.75) rotate(16.25)"/><rect class="cls-4" x="15.42" y="28" width="14.13" height="0.84" rx="0.37" transform="translate(8.85 -5.16) rotate(16.25)"/><rect class="cls-4" x="20.41" y="34.41" width="9.39" height="0.84" rx="0.37" transform="translate(10.75 -5.63) rotate(16.25)"/><rect class="cls-4" x="19.26" y="39.24" width="5.54" height="0.84" rx="0.37" transform="translate(11.98 -4.58) rotate(16.25)"/><path class="cls-3" d="M26.72,48.41a5.75,5.75,0,0,1-6.83,3c-3.31-1-2.41-5.47-2.3-8.48a21,21,0,0,0,3.17.79c-.12-.19,1.39-1.28,3.2-2.65C25.28,43.17,27.42,46.88,26.72,48.41Z"/><path class="cls-2" d="M21.47,52.24A6,6,0,0,1,19.71,52c-3.25-1-3-4.69-2.78-7.64,0-.5.06-1,.08-1.41a.59.59,0,0,1,.26-.46.56.56,0,0,1,.52-.06,22.32,22.32,0,0,0,2.69.69,24.18,24.18,0,0,1,2.47-2l.66-.49a.58.58,0,0,1,.46-.11.55.55,0,0,1,.38.26c2.48,3.86,3.42,6.51,2.8,7.86h0A6.2,6.2,0,0,1,21.47,52.24Zm-3.34-8.49c0,.22,0,.45,0,.68-.24,3.34-.24,5.76,2,6.45a5.18,5.18,0,0,0,6.13-2.72c.31-.67-.17-2.65-2.38-6.21l-.16.11c-1,.73-2,1.54-2.33,1.84a.48.48,0,0,1-.08.18.57.57,0,0,1-.58.25C20.6,44.32,19.34,44.1,18.13,43.75Zm8.59,4.66h0Zm-5.46-5Zm0,0Zm0,0Z"/><path class="cls-3" d="M13.22,2.8a7.84,7.84,0,0,0-3-.49c.19-.65.65-1.8,1.51-1.72C12.94.7,13.19,2,13.22,2.8Z"/><path class="cls-2" d="M13.22,3.38a.63.63,0,0,1-.19,0,7.24,7.24,0,0,0-2.78-.46.58.58,0,0,1-.49-.22.6.6,0,0,1-.1-.52C10.24.17,11.24,0,11.78,0c1.22.11,2,1.12,2,2.77a.59.59,0,0,1-.23.49A.61.61,0,0,1,13.22,3.38ZM11.06,1.74A9.45,9.45,0,0,1,12.52,2a1,1,0,0,0-.84-.82C11.48,1.15,11.26,1.36,11.06,1.74Z"/><g class="cls-5"><path class="cls-6" d="M29.05,28.94a2.41,2.41,0,0,1-2.11.39c-.8-.36-1.15-2-.92-2.86.34-1.26,1.19-1.31,1.39-1.66a2.57,2.57,0,0,0,.32-1.12C28.24,25.49,28.69,27.27,29.05,28.94Z"/><path class="cls-2" d="M27.51,30a2.05,2.05,0,0,1-.81-.16c-1.13-.52-1.53-2.48-1.24-3.55a2.67,2.67,0,0,1,1.29-1.71l.18-.11a2.61,2.61,0,0,0,.23-.86.58.58,0,0,1,.52-.53.59.59,0,0,1,.61.43c.54,1.9,1,3.68,1.33,5.28a.58.58,0,0,1-.25.61A3.67,3.67,0,0,1,27.51,30Zm.1-4.59-.24.16a1.5,1.5,0,0,0-.79,1c-.19.7.17,2,.6,2.18a1.61,1.61,0,0,0,1.21-.15Q28,27.14,27.61,25.44Z"/></g><path class="cls-3" d="M26.05,17.91c-.74.8-1.74,1.28-2.53.42s-.94-3.2.49-5.26a.9.9,0,0,0,0-.85s-.17-.5-.09-.57a.48.48,0,0,1,.5,0c.72.23,2.2,1.46,2.66,4.1A3.3,3.3,0,0,1,26.05,17.91Z"/><path class="cls-2" d="M24.47,19.37h0a1.86,1.86,0,0,1-1.37-.65c-1-1.12-1.08-3.79.44-6,0-.05,0-.22,0-.26l0-.07c-.15-.45-.25-.9.07-1.19a1,1,0,0,1,1.08-.16c.95.3,2.56,1.77,3,4.55a3.84,3.84,0,0,1-1.18,2.7h0A2.93,2.93,0,0,1,24.47,19.37Zm.21-7a1.31,1.31,0,0,1-.19,1c-1.33,1.91-1,4-.54,4.54a.68.68,0,0,0,.52.27,1.86,1.86,0,0,0,1.16-.69h0a3,3,0,0,0,.88-1.7A5.35,5.35,0,0,0,24.68,12.4Z"/><path class="cls-3" d="M29.83,28a1.73,1.73,0,0,1-.78.91,2.41,2.41,0,0,1-2.11.39c-.8-.36-1.15-2-.92-2.86.34-1.26,1.19-1.31,1.39-1.66a2.57,2.57,0,0,0,.32-1.12h0a3.68,3.68,0,0,0,0-.77A4.6,4.6,0,0,1,29.83,28Z"/><path class="cls-2" d="M27.51,30a2.05,2.05,0,0,1-.81-.16c-1.13-.52-1.53-2.48-1.24-3.55a2.67,2.67,0,0,1,1.29-1.71l.18-.11a2.39,2.39,0,0,0,.22-.85h0a4,4,0,0,0,0-.66.59.59,0,0,1,.26-.54.57.57,0,0,1,.59,0,5.18,5.18,0,0,1,2.39,5.73h0a2.18,2.18,0,0,1-1,1.28A3.51,3.51,0,0,1,27.51,30Zm.76-6a3,3,0,0,1-.35,1,1.53,1.53,0,0,1-.55.5,1.5,1.5,0,0,0-.79,1c-.19.7.17,2,.6,2.18a1.89,1.89,0,0,0,1.55-.34,1.27,1.27,0,0,0,.53-.55A4.1,4.1,0,0,0,28.27,24.08Zm1.56,4Z"/><circle class="cls-2" cx="6.12" cy="9.17" r="0.58"/><circle class="cls-2" cx="12.01" cy="4.57" r="0.58"/><path class="cls-3" d="M11.51,7.87l-.1.08-.16.1A1.2,1.2,0,0,1,9.77,8l0-.06a1.23,1.23,0,0,1,.51-1.62,1.23,1.23,0,0,1,1.69,0,.5.5,0,0,1,.1.19A1.3,1.3,0,0,1,11.51,7.87Z"/><path class="cls-2" d="M10.44,8.58a1.17,1.17,0,0,1-.88-.35l-.08-.09a1.49,1.49,0,0,1,.58-2,1.87,1.87,0,0,1,1.12-.4h0a1.17,1.17,0,0,1,1,.44,1.3,1.3,0,0,1,.14.26,1.59,1.59,0,0,1-.6,1.67l-.11.09-.18.12A1.92,1.92,0,0,1,10.44,8.58ZM11.2,6.3h0a1.4,1.4,0,0,0-.79.29c-.47.35-.68.9-.45,1.2l0,0a.94.94,0,0,0,1.12,0l.13-.09.07-.06h0a1,1,0,0,0,.43-1,.29.29,0,0,0-.06-.11A.6.6,0,0,0,11.2,6.3Z"/><path class="cls-3" d="M12.44,9.4a2.68,2.68,0,0,1-1.13,1.79c-1.06.79-2.4.8-3,0s-.18-2.06.88-2.85A3.57,3.57,0,0,1,9.77,8a1.2,1.2,0,0,0,1.48,0l.16-.1.1-.08a1.37,1.37,0,0,1,.68.48A1.42,1.42,0,0,1,12.44,9.4Z"/><path class="cls-2" d="M9.63,12.08a1.85,1.85,0,0,1-1.53-.7,1.79,1.79,0,0,1-.3-1.33A3.07,3.07,0,0,1,9,8.13a3.37,3.37,0,0,1,.61-.36.29.29,0,0,1,.33.06.94.94,0,0,0,1.13,0l.13-.09.07-.06a.31.31,0,0,1,.29-.06,1.71,1.71,0,0,1,.82.59,1.69,1.69,0,0,1,.31,1.25,3,3,0,0,1-1.25,2,3.13,3.13,0,0,1-1.84.65Zm.1-3.7a2.74,2.74,0,0,0-1.35,1.76,1.13,1.13,0,0,0,.19.89,1.27,1.27,0,0,0,1.06.47h0a2.56,2.56,0,0,0,1.5-.54,2.43,2.43,0,0,0,1-1.59h0a1.11,1.11,0,0,0-.2-.83,1,1,0,0,0-.39-.33l-.15.1A1.6,1.6,0,0,1,9.73,8.38Z"/><path class="cls-3" d="M14.22,8.87a2.56,2.56,0,0,1-1.78.53,1.42,1.42,0,0,0-.25-1.05,1.37,1.37,0,0,0-.68-.48A1.3,1.3,0,0,0,12,6.52a2.09,2.09,0,0,1,.28-.24,2,2,0,0,1,2.72,0A2,2,0,0,1,14.22,8.87Z"/><path class="cls-2" d="M12.69,9.7H12.4a.3.3,0,0,1-.25-.33,1.11,1.11,0,0,0-.2-.83,1.06,1.06,0,0,0-.53-.39.3.3,0,0,1-.2-.22.28.28,0,0,1,.1-.27,1,1,0,0,0,.43-1,.3.3,0,0,1,.07-.31,3.88,3.88,0,0,1,.31-.26,2.86,2.86,0,0,1,1.7-.6h0a1.71,1.71,0,0,1,1.42.65,2.25,2.25,0,0,1-.87,3h0A2.89,2.89,0,0,1,12.69,9.7ZM12,7.78a1.6,1.6,0,0,1,.42.4,1.64,1.64,0,0,1,.32.94A2.39,2.39,0,0,0,14,8.64c.85-.63,1.18-1.61.75-2.2A1.16,1.16,0,0,0,13.84,6h0a2.32,2.32,0,0,0-1.36.49l-.12.1A1.55,1.55,0,0,1,12,7.78Zm2.22,1.09Z"/><line class="cls-3" x1="8.81" y1="10.26" x2="7.31" y2="10.36"/><path class="cls-2" d="M7.31,10.65a.29.29,0,0,1,0-.58l1.5-.1a.29.29,0,0,1,0,.58l-1.5.1Z"/><line class="cls-3" x1="9.03" y1="11.04" x2="7.87" y2="11.98"/><path class="cls-2" d="M7.87,12.27a.29.29,0,0,1-.23-.1.3.3,0,0,1,0-.41l1.17-.95a.3.3,0,0,1,.41,0,.29.29,0,0,1,0,.41l-1.16,1A.3.3,0,0,1,7.87,12.27Z"/><line class="cls-3" x1="13.56" y1="6.87" x2="14.53" y2="5.27"/><path class="cls-2" d="M13.56,7.16a.28.28,0,0,1-.15,0,.3.3,0,0,1-.1-.4l1-1.6a.3.3,0,0,1,.4-.1.29.29,0,0,1,.1.4l-1,1.6A.29.29,0,0,1,13.56,7.16Z"/><line class="cls-3" x1="14.19" y1="7.11" x2="15.7" y2="6.58"/><path class="cls-2" d="M14.19,7.4a.28.28,0,0,1-.27-.19.29.29,0,0,1,.18-.37l1.5-.54a.29.29,0,0,1,.19.55l-1.5.54Z"/><path class="cls-2" d="M11.12,17A.41.41,0,0,1,11,17L8.2,16.23a.6.6,0,0,1-.41-.72.58.58,0,0,1,.72-.4l2.49.7,9.62-6.87a.57.57,0,0,1,.81.14.58.58,0,0,1-.14.81l-9.84,7A.51.51,0,0,1,11.12,17Z"/><path class="cls-2" d="M13.41,22.18a.59.59,0,0,1-.54-.35c-.7-1.64-1.47-3.37-2.28-5.15a.58.58,0,0,1,.28-.77.59.59,0,0,1,.77.29c.82,1.78,1.6,3.52,2.3,5.17a.57.57,0,0,1-.3.76A.68.68,0,0,1,13.41,22.18Z"/><path class="cls-2" d="M17.55,33.06a.57.57,0,0,1-.55-.4c-.61-1.84-1.3-3.79-2.07-5.79A.58.58,0,0,1,16,26.45c.78,2,1.48,4,2.09,5.85a.58.58,0,0,1-.37.74Z"/><path class="cls-2" d="M20,42.18a.57.57,0,0,1-.56-.47c-.28-1.36-.61-2.78-1-4.23a.58.58,0,0,1,.41-.71.59.59,0,0,1,.71.42c.39,1.46.73,2.91,1,4.29a.6.6,0,0,1-.46.69Z"/></g></g></svg>