<svg xmlns="http://www.w3.org/2000/svg" viewBox="0 0 781.59 643.89"><defs><style>.cls-1{fill:#fff;}.cls-2,.cls-4{fill:#b72027;}.cls-3,.cls-7{fill:none;}.cls-10,.cls-3,.cls-4,.cls-5,.cls-6,.cls-8,.cls-9{stroke:#231815;}.cls-10,.cls-3,.cls-4,.cls-5,.cls-6,.cls-7,.cls-8,.cls-9{stroke-miterlimit:10;}.cls-3,.cls-4,.cls-5,.cls-6{stroke-width:9px;}.cls-5{fill:#fefefe;}.cls-6{fill:#ccecfb;}.cls-7{stroke:#fff;stroke-width:5px;}.cls-8{fill:#c9a063;}.cls-9{fill:#eee4cf;}.cls-10{fill:#231815;}</style></defs><title>資產 1</title><g id="圖層_2" data-name="圖層 2"><g id="圖層_1-2" data-name="圖層 1"><path class="cls-1" d="M559.41,191.27V4.93H745.76V191.27ZM577.27,71.5c1.91.1,3.44.23,5,.25,3.48,0,7,.08,10.45,0,.94,0,2.17.47,2.82-.85.89-1.79,1.89-3.52,2.77-5.32,1.66-3.4,4.23-6.14,6.61-9A46.54,46.54,0,0,1,610.53,51c2.44-2,5-3.93,7.65-5.77,1.62-1.15,3.37-2.12,5.1-3.11A24.66,24.66,0,0,1,627,40.17c3-1.08,6-2.11,9-3a37.47,37.47,0,0,1,10.47-1.82c2.47,0,4.94-.25,7.41-.3A55.85,55.85,0,0,1,668.36,37a63.85,63.85,0,0,1,8.28,2.77A50.47,50.47,0,0,1,683.35,43a64.41,64.41,0,0,1,6.32,4.35c2.28,1.71,4.52,3.49,6.65,5.38a39.49,39.49,0,0,1,3.51,3.9c1.21,1.42,2.48,2.81,3.56,4.33,1.38,1.94,2.61,4,3.88,6,.94,1.5,1.84,3,2.89,4.76h17.21A10.18,10.18,0,0,0,726.9,70c-1.43-3-3-6-4.33-9-1.64-3.78-4.19-7-6.48-10.3a59.69,59.69,0,0,0-4.17-5.2c-1.49-1.71-3-3.36-4.65-5a34,34,0,0,0-2.77-2.29c-1.68-1.38-3.28-2.88-5-4.13-2.41-1.71-4.92-3.27-7.44-4.8a50.14,50.14,0,0,0-5.25-2.84c-2-.94-4.19-1.7-6.3-2.51-1.88-.72-3.75-1.43-5.64-2.11a24,24,0,0,0-2.48-.69c-1.58-.39-3.16-.81-4.75-1.11-1.2-.22-2.43-.23-3.64-.39-1.9-.25-3.78-.66-5.68-.79s-3.76,0-5.65,0-3.59-.22-5.37-.08c-2.82.24-5.64.57-8.42,1.09s-5.61,1.34-8.41,2.05c-.95.25-1.88.57-2.81.89-2.46.86-5,1.59-7.34,2.65a63.46,63.46,0,0,0-7.82,4.14,125.84,125.84,0,0,0-11.14,7.69,62.46,62.46,0,0,0-8.3,8,78.36,78.36,0,0,0-9.88,14c-.76,1.43-1.52,2.86-2.22,4.31C579.68,66.25,578.51,68.83,577.27,71.5Zm.16,53.41a79.55,79.55,0,0,0,32,40.19c15.26,9.92,32,13.82,49.92,12.38a76.78,76.78,0,0,0,40.07-15,79.9,79.9,0,0,0,28-37.64H709.79c-.14.33-.31.77-.53,1.18-1.06,2-2,4.1-3.24,6a67.86,67.86,0,0,1-4.73,6.38,69.44,69.44,0,0,1-5.61,6.14,61.28,61.28,0,0,1-6.19,4.92,55,55,0,0,1-6.64,4.31,72.74,72.74,0,0,1-9.13,4c-3.22,1.13-6.56,1.89-9.86,2.77a25.7,25.7,0,0,1-3.27.57c-1.42.18-2.85.34-4.29.4s-2.78,0-4.18,0a34.5,34.5,0,0,1-3.94-.05c-2.92-.36-5.84-.77-8.73-1.33a65.39,65.39,0,0,1-7.8-1.95,43.26,43.26,0,0,1-6.1-2.65,64.15,64.15,0,0,1-15-9.9c-.74-.69-1.7-1.17-2.38-1.91a85.4,85.4,0,0,1-6.33-7.41c-2.15-3-3.89-6.35-5.85-9.51-.46-.75-1.07-1.91-1.7-2-2.23-.2-4.5,0-6.75,0-2,0-4,0-6,0Zm80.65-40.76a7.21,7.21,0,0,1,3.39,5.36c.82,4.31,1.62,8.63,2.32,13,.56,3.39,1,6.81,1.45,10.22a3.07,3.07,0,0,0,2.41,2.84,2.7,2.7,0,0,0,3-1.69,1.25,1.25,0,0,1,1-.59c7.05,0,14.09-1.09,21.14-.07a3.42,3.42,0,0,0,.64,0c2-.18,2.92-1.71,1.9-3.45-.57-1-1.46-1.8-2.11-2.76a1.58,1.58,0,0,1-.24-1.28q2.94-6.32,6-12.57a4.53,4.53,0,0,1,1.15-1.51c2-1.57,2.15-3,.13-4.57s-4.11-2.82-6.11-4.3-3.6-1.17-5.45.12a7.23,7.23,0,0,1-3.14,1.34c-4.49.47-9,.74-13.5,1.14a1.92,1.92,0,0,1-2-.91A4.46,4.46,0,0,0,668.25,83a10.51,10.51,0,0,0-8.41-.07A11.53,11.53,0,0,0,658.08,84.15Zm-64.81,15.1c3.94-3,7.73-5.87,11.53-8.73a4.47,4.47,0,0,1,.7-.33c2.67-1.28,3-3,1.06-5.18a8.69,8.69,0,0,0-1-1c-1.93-1.58-3.86-3.16-5.82-4.71-1.31-1-2-.91-3.27.17A6.35,6.35,0,0,1,593.74,81c-5.42,1-10.87,1.81-16.31,2.67a5.26,5.26,0,0,1-4.12-1.07,4.84,4.84,0,0,0-1.58-.44c0,.56-.17,1.23.08,1.65,1.46,2.48,2.94,5,4.58,7.32,1.39,2,3.05,2.41,5.33,1.54,1.56-.6,3.06-1.37,4.57-2.1,2.11-1,4.2-2.07,6.29-3.1a1,1,0,0,1-.29.66Q585.12,96.55,578,105c-3.1,3.63-6.22,7.26-9.27,10.93-.54.65-1.73,1.19-1,2.28a9,9,0,0,0,2.25-.87,4.12,4.12,0,0,0,.74-.52l9.37-7.09c3.34-2.55,6.67-5.13,10.2-7.84.32.4.59.79.91,1.13a27.09,27.09,0,0,1,4.64,7.7,27.55,27.55,0,0,0,2.81,5.18,5.85,5.85,0,0,0,6.5,2.37,6.18,6.18,0,0,0,4.81-4.87c.66-2.67-.66-4.64-2.64-6.12a54.59,54.59,0,0,0-5.88-3.74C598.8,102.05,596.15,100.75,593.27,99.25Zm36.55,19.11a6.06,6.06,0,0,0,5.47-2.85c1.13-1.67,2.27-3.35,3.26-5.11q8.31-14.79,16.55-29.63a13.47,13.47,0,0,0,.87-1.58,2.69,2.69,0,0,0,0-1c-.33.11-.67.19-1,.33-.14.07-.24.25-.36.37q-12,12.9-24,25.79c-2.66,2.86-3.61,3.06-7.24,1.49-1.22-.52-2.42-1.12-3.68-1.56-.37-.13-.9.17-1.35.27a5.44,5.44,0,0,0,.36,1.36,2.67,2.67,0,0,0,.88.74,5.74,5.74,0,0,1,2.53,4.17,10.15,10.15,0,0,0,.38,1.63A7.47,7.47,0,0,0,629.82,118.36ZM735.18,102c2,.16,3-.87,2-2.29a40.52,40.52,0,0,0-4.84-5.63c-1.13-1.1-2.28-.82-3.67,0a6.69,6.69,0,0,1-2.73,1c-6,.43-12.1.83-18.16,1.07-1.26,0-2.53-.62-3.81-.9a11.53,11.53,0,0,0-1.77-.09c.12.56.06,1.24.38,1.64,1.22,1.54,2.6,3,3.86,4.5a5.07,5.07,0,0,0,5.08,1.77A117.26,117.26,0,0,1,735.18,102ZM629.89,89.17c.43-.09,1.24-.19,2-.42,2.06-.61,2.63-1.62,2.11-3.67a18.74,18.74,0,0,0-.65-2.09c-1-2.64-2.29-3.5-5-3.06-2.51.4-4.87.48-7-1.1-.25-.18-.76,0-1.16,0,0,.36-.07.79.1,1.06,1.43,2.3,2.86,4.6,4.39,6.83C625.77,88.4,627.49,89.12,629.89,89.17ZM623,100.06c3.64,0,4.89-1.64,3.9-4.76a6.26,6.26,0,0,0-.21-.61c-.94-2.6-2.18-3.36-4.9-3-2.38.3-4.73.44-6.77-1.22-.23-.19-.7-.09-1-.12,0,.36-.16.8,0,1a73.91,73.91,0,0,0,4.32,6.54A6.13,6.13,0,0,0,623,100.06Z"/><path class="cls-2" d="M577.27,71.5c1.24-2.67,2.41-5.25,3.64-7.82.7-1.45,1.46-2.88,2.22-4.31a78.36,78.36,0,0,1,9.88-14,62.46,62.46,0,0,1,8.3-8,125.84,125.84,0,0,1,11.14-7.69,63.46,63.46,0,0,1,7.82-4.14c2.37-1.06,4.88-1.79,7.34-2.65.93-.32,1.86-.64,2.81-.89,2.8-.71,5.58-1.51,8.41-2.05s5.6-.85,8.42-1.09c1.78-.14,3.58.07,5.37.08s3.78-.13,5.65,0,3.78.54,5.68.79c1.21.16,2.44.17,3.64.39,1.59.3,3.17.72,4.75,1.11a24,24,0,0,1,2.48.69c1.89.68,3.76,1.39,5.64,2.11,2.11.81,4.25,1.57,6.3,2.51A50.14,50.14,0,0,1,692,29.31c2.52,1.53,5,3.09,7.44,4.8,1.77,1.25,3.37,2.75,5,4.13a34,34,0,0,1,2.77,2.29c1.6,1.6,3.16,3.25,4.65,5a59.69,59.69,0,0,1,4.17,5.2c2.29,3.34,4.84,6.52,6.48,10.3,1.33,3.05,2.9,6,4.33,9a10.18,10.18,0,0,1,.47,1.67H710.16c-1-1.74-1.95-3.26-2.89-4.76-1.27-2-2.5-4.07-3.88-6-1.08-1.52-2.35-2.91-3.56-4.33a39.49,39.49,0,0,0-3.51-3.9c-2.13-1.89-4.37-3.67-6.65-5.38A64.41,64.41,0,0,0,683.35,43a50.47,50.47,0,0,0-6.71-3.23A63.85,63.85,0,0,0,668.36,37a55.85,55.85,0,0,0-14.45-1.88c-2.47,0-4.94.31-7.41.3A37.47,37.47,0,0,0,636,37.19c-3,.87-6,1.9-9,3a24.66,24.66,0,0,0-3.76,1.92c-1.73,1-3.48,2-5.1,3.11C615.57,47,613,48.92,610.53,51a46.54,46.54,0,0,0-5.64,5.59c-2.38,2.85-4.95,5.59-6.61,9-.88,1.8-1.88,3.53-2.77,5.32-.65,1.32-1.88.83-2.82.85-3.48.11-7,.06-10.45,0C580.71,71.73,579.18,71.6,577.27,71.5Z"/><path class="cls-2" d="M577.43,124.91h4.15c2,0,4,0,6,0,2.25,0,4.52-.24,6.75,0,.63.05,1.24,1.21,1.7,2,2,3.16,3.7,6.48,5.85,9.51a85.4,85.4,0,0,0,6.33,7.41c.68.74,1.64,1.22,2.38,1.91a64.15,64.15,0,0,0,15,9.9,43.26,43.26,0,0,0,6.1,2.65,65.39,65.39,0,0,0,7.8,1.95c2.89.56,5.81,1,8.73,1.33a34.5,34.5,0,0,0,3.94.05c1.4,0,2.79.1,4.18,0s2.87-.22,4.29-.4a25.7,25.7,0,0,0,3.27-.57c3.3-.88,6.64-1.64,9.86-2.77a72.74,72.74,0,0,0,9.13-4,55,55,0,0,0,6.64-4.31,61.28,61.28,0,0,0,6.19-4.92,69.44,69.44,0,0,0,5.61-6.14A67.86,67.86,0,0,0,706,132c1.24-1.9,2.18-4,3.24-6,.22-.41.39-.85.53-1.18h17.64a79.9,79.9,0,0,1-28,37.64,76.78,76.78,0,0,1-40.07,15c-17.94,1.44-34.66-2.46-49.92-12.38A79.55,79.55,0,0,1,577.43,124.91Z"/><path d="M658.08,84.15a11.53,11.53,0,0,1,1.76-1.2,10.51,10.51,0,0,1,8.41.07A4.46,4.46,0,0,1,670,84.44a1.92,1.92,0,0,0,2,.91c4.5-.4,9-.67,13.5-1.14a7.23,7.23,0,0,0,3.14-1.34c1.85-1.29,3.56-1.5,5.45-.12s4.16,2.76,6.11,4.3,1.88,3-.13,4.57A4.53,4.53,0,0,0,699,93.13q-3.06,6.25-6,12.57a1.58,1.58,0,0,0,.24,1.28c.65,1,1.54,1.77,2.11,2.76,1,1.74.13,3.27-1.9,3.45a3.42,3.42,0,0,1-.64,0c-7-1-14.09.11-21.14.07a1.25,1.25,0,0,0-1,.59,2.7,2.7,0,0,1-3,1.69,3.07,3.07,0,0,1-2.41-2.84c-.49-3.41-.89-6.83-1.45-10.22-.7-4.33-1.5-8.65-2.32-13A7.21,7.21,0,0,0,658.08,84.15ZM671,106.55c4.37-.18,8.62-.34,12.87-.57a1.39,1.39,0,0,0,.94-.82,27.61,27.61,0,0,0,1.43-4.81c.49-3.25.75-6.54,1.11-9.89-.93,0-1.49,0-2,0q-5.67.41-11.34.86c-2.94.23-2.94.24-3,3.26,0,.21,0,.43,0,.64Z"/><path d="M593.27,99.25c2.88,1.5,5.53,2.8,8.1,4.24a54.59,54.59,0,0,1,5.88,3.74c2,1.48,3.3,3.45,2.64,6.12a6.18,6.18,0,0,1-4.81,4.87,5.85,5.85,0,0,1-6.5-2.37,27.55,27.55,0,0,1-2.81-5.18,27.09,27.09,0,0,0-4.64-7.7c-.32-.34-.59-.73-.91-1.13-3.53,2.71-6.86,5.29-10.2,7.84l-9.37,7.09a4.12,4.12,0,0,1-.74.52,9,9,0,0,1-2.25.87c-.71-1.09.48-1.63,1-2.28,3.05-3.67,6.17-7.3,9.27-10.93q7.15-8.4,14.34-16.79a1,1,0,0,0,.29-.66c-2.09,1-4.18,2.08-6.29,3.1-1.51.73-3,1.5-4.57,2.1-2.28.87-3.94.44-5.33-1.54-1.64-2.37-3.12-4.84-4.58-7.32-.25-.42-.06-1.09-.08-1.65a4.84,4.84,0,0,1,1.58.44,5.26,5.26,0,0,0,4.12,1.07c5.44-.86,10.89-1.69,16.31-2.67a6.35,6.35,0,0,0,2.71-1.55c1.26-1.08,2-1.22,3.27-.17,2,1.55,3.89,3.13,5.82,4.71a8.69,8.69,0,0,1,1,1c2,2.2,1.61,3.9-1.06,5.18a4.47,4.47,0,0,0-.7.33C601,93.38,597.21,96.26,593.27,99.25Z"/><path d="M629.82,118.36a7.47,7.47,0,0,1-7.34-5.6,10.15,10.15,0,0,1-.38-1.63,5.74,5.74,0,0,0-2.53-4.17,2.67,2.67,0,0,1-.88-.74,5.44,5.44,0,0,1-.36-1.36c.45-.1,1-.4,1.35-.27,1.26.44,2.46,1,3.68,1.56,3.63,1.57,4.58,1.37,7.24-1.49q12-12.9,24-25.79c.12-.12.22-.3.36-.37.32-.14.66-.22,1-.33a2.69,2.69,0,0,1,0,1,13.47,13.47,0,0,1-.87,1.58q-8.26,14.82-16.55,29.63c-1,1.76-2.13,3.44-3.26,5.11A6.06,6.06,0,0,1,629.82,118.36Z"/><path d="M735.18,102a117.26,117.26,0,0,0-23.68,1,5.07,5.07,0,0,1-5.08-1.77c-1.26-1.53-2.64-3-3.86-4.5-.32-.4-.26-1.08-.38-1.64a11.53,11.53,0,0,1,1.77.09c1.28.28,2.55,1,3.81.9,6.06-.24,12.11-.64,18.16-1.07a6.69,6.69,0,0,0,2.73-1c1.39-.81,2.54-1.09,3.67,0a40.52,40.52,0,0,1,4.84,5.63C738.15,101.16,737.18,102.19,735.18,102Z"/><path d="M629.89,89.17c-2.4,0-4.12-.77-5.27-2.44-1.53-2.23-3-4.53-4.39-6.83-.17-.27-.07-.7-.1-1.06.4,0,.91-.19,1.16,0,2.17,1.58,4.53,1.5,7,1.1,2.75-.44,4,.42,5,3.06a18.74,18.74,0,0,1,.65,2.09c.52,2,0,3.06-2.11,3.67C631.13,89,630.32,89.08,629.89,89.17Z"/><path d="M623,100.06a6.13,6.13,0,0,1-4.71-2.13A73.91,73.91,0,0,1,614,91.39c-.16-.25,0-.69,0-1,.35,0,.82-.07,1,.12,2,1.66,4.39,1.52,6.77,1.22,2.72-.35,4,.41,4.9,3a6.26,6.26,0,0,1,.21.61C627.87,98.42,626.62,100.11,623,100.06Z"/><path class="cls-1" d="M671,106.55V95.23c0-.21,0-.43,0-.64,0-3,0-3,3-3.26q5.67-.45,11.34-.86c.54,0,1.1,0,2,0-.36,3.35-.62,6.64-1.11,9.89a27.61,27.61,0,0,1-1.43,4.81,1.39,1.39,0,0,1-.94.82C679.58,106.21,675.33,106.37,671,106.55Z"/><rect class="cls-3" x="559.41" y="4.5" width="186.35" height="192.12"/><rect class="cls-4" x="4.5" y="251.04" width="531" height="93.17"/><rect class="cls-5" x="535.5" y="251.04" width="241.59" height="93.17"/><rect class="cls-5" x="30.89" y="344.21" width="714.87" height="295.18"/><path d="M664.44,282.71a11.92,11.92,0,0,1,1.74-1.18,10.37,10.37,0,0,1,8.28.07,4.24,4.24,0,0,1,1.76,1.4,1.89,1.89,0,0,0,2,.89c4.44-.39,8.89-.65,13.31-1.12a6.93,6.93,0,0,0,3.1-1.32c1.82-1.27,3.51-1.48,5.37-.11s4.1,2.71,6,4.24,1.85,2.95-.12,4.49a4.39,4.39,0,0,0-1.14,1.49q-3,6.18-5.92,12.39a1.59,1.59,0,0,0,.23,1.27c.65.94,1.52,1.73,2.09,2.71,1,1.72.12,3.23-1.88,3.4a2.66,2.66,0,0,1-.63,0c-6.95-1-13.89.1-20.84.06a1.31,1.31,0,0,0-1,.58,2.66,2.66,0,0,1-3,1.68,3,3,0,0,1-2.38-2.81c-.47-3.36-.87-6.73-1.42-10.08-.7-4.26-1.48-8.52-2.29-12.77A7.12,7.12,0,0,0,664.44,282.71Zm12.69,22.08c4.31-.18,8.5-.33,12.69-.56a1.38,1.38,0,0,0,.93-.81,27,27,0,0,0,1.4-4.74c.49-3.21.74-6.45,1.1-9.75-.92,0-1.47,0-2,0q-5.58.4-11.17.85c-2.9.23-2.89.24-2.92,3.21,0,.21,0,.43,0,.64Z"/><path d="M600.56,297.59c2.84,1.48,5.46,2.76,8,4.19a52.91,52.91,0,0,1,5.79,3.68c1.95,1.46,3.26,3.41,2.61,6a6.1,6.1,0,0,1-4.75,4.79,5.75,5.75,0,0,1-6.4-2.33,28.34,28.34,0,0,1-2.78-5.11,26.45,26.45,0,0,0-4.57-7.59c-.31-.34-.58-.72-.89-1.11-3.48,2.67-6.76,5.21-10.06,7.72-3.07,2.35-6.15,4.66-9.23,7a4.05,4.05,0,0,1-.73.52,8.9,8.9,0,0,1-2.22.85c-.7-1.07.48-1.6,1-2.24,3-3.63,6.07-7.2,9.13-10.78l14.14-16.55a.91.91,0,0,0,.28-.64c-2.06,1-4.12,2.05-6.19,3.05-1.49.72-3,1.48-4.51,2.07-2.25.86-3.89.44-5.25-1.52-1.62-2.33-3.08-4.77-4.52-7.21-.25-.41-.06-1.08-.07-1.62a4.72,4.72,0,0,1,1.55.42,5.19,5.19,0,0,0,4.06,1.06c5.36-.85,10.73-1.67,16.07-2.64a6.18,6.18,0,0,0,2.68-1.52c1.24-1.06,1.93-1.2,3.22-.17,1.93,1.53,3.84,3.09,5.74,4.65a9.16,9.16,0,0,1,1,1c1.93,2.17,1.59,3.84-1,5.1a4,4,0,0,0-.69.33Z"/><path d="M636.59,316.43a7.36,7.36,0,0,1-7.23-5.52,9.91,9.91,0,0,1-.38-1.61,5.67,5.67,0,0,0-2.49-4.1,2.63,2.63,0,0,1-.87-.73,5.41,5.41,0,0,1-.36-1.34c.45-.1,1-.4,1.34-.27,1.23.43,2.42,1,3.62,1.54,3.57,1.54,4.51,1.35,7.13-1.47Q649.2,290.22,661,277.51c.12-.12.21-.3.35-.36a8.68,8.68,0,0,1,1-.33,2.64,2.64,0,0,1,0,1,14.92,14.92,0,0,1-.86,1.56q-8.14,14.6-16.31,29.19c-1,1.74-2.1,3.39-3.22,5A6,6,0,0,1,636.59,316.43Z"/><path d="M740.43,300.33a116.06,116.06,0,0,0-23.34,1,5,5,0,0,1-5-1.75c-1.24-1.5-2.59-2.91-3.81-4.43-.3-.39-.25-1.07-.37-1.61a10.16,10.16,0,0,1,1.75.09c1.26.27,2.51.93,3.75.88,6-.24,11.94-.63,17.9-1.06a6.39,6.39,0,0,0,2.7-1c1.37-.8,2.49-1.07,3.61,0a39.37,39.37,0,0,1,4.77,5.55C743.36,299.48,742.4,300.49,740.43,300.33Z"/><rect class="cls-6" x="103.14" y="379.75" width="109.82" height="259.65"/><rect class="cls-6" x="212.96" y="379.75" width="109.81" height="259.65"/><line class="cls-7" x1="125.99" y1="509.57" x2="190.11" y2="445.44"/><line class="cls-7" x1="125.99" y1="531.61" x2="173.37" y2="484.22"/><line class="cls-7" x1="125.99" y1="553.64" x2="164.6" y2="515.03"/><line class="cls-7" x1="230.15" y1="509.57" x2="294.28" y2="445.44"/><line class="cls-7" x1="230.15" y1="531.61" x2="277.53" y2="484.22"/><line class="cls-7" x1="230.15" y1="553.64" x2="268.76" y2="515.03"/><rect class="cls-8" x="418.33" y="379.68" width="273.75" height="154.59"/><rect class="cls-9" x="443.62" y="397.74" width="19.24" height="116.53"/><rect class="cls-9" x="478.25" y="397.74" width="19.24" height="116.53"/><rect class="cls-9" x="512.88" y="397.74" width="19.24" height="116.53"/><rect class="cls-9" x="547.51" y="397.74" width="19.24" height="116.53"/><rect class="cls-9" x="582.14" y="397.74" width="19.24" height="116.53"/><rect class="cls-9" x="616.77" y="397.74" width="19.24" height="116.53"/><rect class="cls-9" x="651.4" y="397.74" width="19.24" height="116.53"/><rect class="cls-10" x="639.81" y="196.62" width="24.63" height="54.42"/></g></g></svg>