<svg xmlns="http://www.w3.org/2000/svg" viewBox="0 0 26.93 45.33"><defs><style>.cls-1{fill:#fff;}.cls-2{fill:#c1e5f1;}.cls-3{font-size:5.21px;fill:#231815;font-family:CambriaMath, Cambria Math;}.cls-4{letter-spacing:-0.02em;}</style></defs><title>資產 4</title><g id="圖層_2" data-name="圖層 2"><g id="圖層_1-2" data-name="圖層 1"><rect class="cls-1" x="1.21" y="0.97" width="24.42" height="43.3"/><rect class="cls-2" x="0.97" y="5.49" width="24.51" height="31.23"/><path d="M17.43,2.27H9.51a.78.78,0,0,0-.8.75.78.78,0,0,0,.8.76h7.92A.77.77,0,0,0,18.22,3,.77.77,0,0,0,17.43,2.27Z"/><path d="M23,2.27h-.79a.77.77,0,0,0-.79.75.77.77,0,0,0,.79.76H23a.78.78,0,0,0,.8-.76A.78.78,0,0,0,23,2.27Z"/><path d="M14.45,38.53h-2a2.14,2.14,0,0,0-2.18,2.09V41a2.14,2.14,0,0,0,2.18,2.09h2A2.14,2.14,0,0,0,16.64,41v-.36A2.14,2.14,0,0,0,14.45,38.53Zm.6,2.45a.59.59,0,0,1-.6.58h-2a.59.59,0,0,1-.6-.58v-.36a.59.59,0,0,1,.6-.58h2a.59.59,0,0,1,.6.58Z"/><path d="M24.07,0H2.86A2.8,2.8,0,0,0,0,2.73V42.6a2.8,2.8,0,0,0,2.86,2.73H24.07a2.8,2.8,0,0,0,2.86-2.73V2.73A2.8,2.8,0,0,0,24.07,0Zm1.28,42.6a1.25,1.25,0,0,1-1.28,1.22H2.86A1.26,1.26,0,0,1,1.58,42.6V2.73A1.26,1.26,0,0,1,2.86,1.51H24.07a1.25,1.25,0,0,1,1.28,1.22V42.6Z"/><path d="M26.14,4.53H.79A.77.77,0,0,0,0,5.29V37a.77.77,0,0,0,.79.76H26.14a.77.77,0,0,0,.79-.76V5.29A.77.77,0,0,0,26.14,4.53Zm-.79,31.74H1.58V6H25.35Z"/><text class="cls-3" transform="translate(3.07 14.16) scale(1.05 1)">SUSHI<tspan class="cls-4" x="13.82" y="0">R</tspan><tspan x="16.96" y="0">O</tspan></text></g></g></svg>