<svg xmlns="http://www.w3.org/2000/svg" viewBox="0 0 42.25 40.53"><defs><style>.cls-1{fill:#d85314;}.cls-2{fill:#231815;}.cls-3{fill:#f29600;}.cls-4{fill:#fff;}.cls-5{fill:#eeeeef;}.cls-6{fill:#c30d23;}.cls-7{fill:#d87d64;}</style></defs><title>資產 3</title><g id="圖層_2" data-name="圖層 2"><g id="圖層_1-2" data-name="圖層 1"><path class="cls-1" d="M29.32,21.47c-2.39-.06-3.63-.77-5.66-2.47l-.84-.73c-3-2.64-5-5.81-8.75-7.23C10,9.53,6,10.27,3.4,10.57c-1.37.16-2.31.2-2.6-.31C-1.15,6.77,3.36,2.52,5.66,1.58a16.6,16.6,0,0,1,3.42-1C18.34-1,27.91,5.21,30.39,12.42c1.66,4.81,6.33,1.38,6.74,4.28C37.67,20.49,32.88,21.57,29.32,21.47Z"/><path class="cls-2" d="M27.08,21.46a10.28,10.28,0,0,1-3.63-2.22l-.85-.73c-1-.83-1.81-1.73-2.64-2.59-1.79-1.87-3.49-3.63-6-4.58-3.57-1.33-7.11-.88-9.7-.55l-.82.1C2,11.06.92,11.13.52,10.42A4.32,4.32,0,0,1,.3,6.77,10.75,10.75,0,0,1,5.54,1.28,17,17,0,0,1,9,.27c9.73-1.72,19.23,5,21.67,12.05.86,2.49,2.56,2.59,4.07,2.67,1.21.06,2.46.13,2.68,1.66a3.55,3.55,0,0,1-.85,3c-1.92,2.14-6.06,2.2-7.29,2.16h0A8.24,8.24,0,0,1,27.08,21.46Zm-13.75-11c.28.08.57.18.85.28,2.65,1,4.4,2.82,6.24,4.74.82.85,1.66,1.73,2.61,2.55q.43.39.84.72c1.95,1.64,3.14,2.34,5.46,2.4h0c2.38.07,5.42-.41,6.79-1.95a2.94,2.94,0,0,0,.7-2.46c-.14-1-.78-1-2.09-1.11-1.53-.09-3.64-.2-4.64-3.11C27.73,5.69,18.55-.76,9.14.9a16.72,16.72,0,0,0-3.35,1A10,10,0,0,0,.91,7a3.63,3.63,0,0,0,.17,3.12c.22.4,1.56.24,2.28.16l.82-.11A21.33,21.33,0,0,1,13.33,10.46Z"/><path class="cls-3" d="M6.81,7.92a.3.3,0,0,1-.22-.24l-1.24-6A.32.32,0,1,1,6,1.51l1.24,6A.32.32,0,0,1,7,7.93.29.29,0,0,1,6.81,7.92Z"/><path class="cls-3" d="M10.51,8.07a.32.32,0,0,1-.22-.24L8.76.59A.32.32,0,0,1,9,.21a.32.32,0,0,1,.38.25l1.53,7.23a.31.31,0,0,1-.24.38A.29.29,0,0,1,10.51,8.07Z"/><path class="cls-3" d="M14,8.08a.3.3,0,0,1-.22-.24L12.25.61a.32.32,0,0,1,.63-.13L14.4,7.71a.32.32,0,0,1-.24.38A.29.29,0,0,1,14,8.08Z"/><path class="cls-3" d="M17.93,10.65a.33.33,0,0,1-.23-.25L15.88.91A.32.32,0,1,1,16.5.79l1.83,9.49a.32.32,0,0,1-.25.38A.25.25,0,0,1,17.93,10.65Z"/><path class="cls-3" d="M21.75,14.07a.32.32,0,0,1-.23-.26L19.6,2.25a.32.32,0,0,1,.64-.11l1.91,11.57a.32.32,0,0,1-.26.37A.32.32,0,0,1,21.75,14.07Z"/><path class="cls-3" d="M25.87,17a.31.31,0,0,1-.22-.25L23.5,4.34A.32.32,0,0,1,23.76,4a.32.32,0,0,1,.37.26l2.15,12.43A.32.32,0,0,1,26,17,.26.26,0,0,1,25.87,17Z"/><path class="cls-3" d="M29.28,17.94a.3.3,0,0,1-.22-.24L26.94,7.31a.33.33,0,0,1,.25-.38.33.33,0,0,1,.38.25l2.11,10.39a.32.32,0,0,1-.25.38A.26.26,0,0,1,29.28,17.94Z"/><path class="cls-3" d="M31.37,17.68a.33.33,0,0,1-.23-.24l-1-4.78a.31.31,0,0,1,.25-.38.3.3,0,0,1,.37.25l1,4.78a.32.32,0,0,1-.25.38A.25.25,0,0,1,31.37,17.68Z"/><path class="cls-3" d="M34.92,18.56a.32.32,0,0,1-.22-.23l-.63-2.79a.32.32,0,1,1,.62-.14l.64,2.79a.33.33,0,0,1-.25.38A.29.29,0,0,1,34.92,18.56Z"/><path class="cls-2" d="M27.08,21.46a10.28,10.28,0,0,1-3.63-2.22l-.85-.73c-1-.83-1.81-1.73-2.64-2.59-1.79-1.87-3.49-3.63-6-4.58-3.57-1.33-7.11-.88-9.7-.55l-.82.1C2,11.06.92,11.13.52,10.42A4.32,4.32,0,0,1,.3,6.77,10.75,10.75,0,0,1,5.54,1.28,17,17,0,0,1,9,.27c9.73-1.72,19.23,5,21.67,12.05.86,2.49,2.56,2.59,4.07,2.67,1.21.06,2.46.13,2.68,1.66a3.55,3.55,0,0,1-.85,3c-1.92,2.14-6.06,2.2-7.29,2.16h0A8.24,8.24,0,0,1,27.08,21.46Zm-13.75-11c.28.08.57.18.85.28,2.65,1,4.4,2.82,6.24,4.74.82.85,1.66,1.73,2.61,2.55q.43.39.84.72c1.95,1.64,3.14,2.34,5.46,2.4h0c2.38.07,5.42-.41,6.79-1.95a2.94,2.94,0,0,0,.7-2.46c-.14-1-.78-1-2.09-1.11-1.53-.09-3.64-.2-4.64-3.11C27.73,5.69,18.55-.76,9.14.9a16.72,16.72,0,0,0-3.35,1A10,10,0,0,0,.91,7a3.63,3.63,0,0,0,.17,3.12c.22.4,1.56.24,2.28.16l.82-.11A21.33,21.33,0,0,1,13.33,10.46Z"/><path class="cls-2" d="M26.26,17.8a4,4,0,0,1-.72-.27,21.93,21.93,0,0,1-4.21-3.61c-2-2-4.23-4.19-6.5-5.1C11.56,7.5,4.29,8.25,4.22,8.26A.32.32,0,0,1,3.87,8a.31.31,0,0,1,.28-.35c.3,0,7.5-.77,10.91.6,2.4,1,4.69,3.24,6.72,5.25A21.31,21.31,0,0,0,25.85,17a16.38,16.38,0,0,0,2.9.77.31.31,0,0,1,.25.37.32.32,0,0,1-.37.26C28.44,18.32,27.16,18.07,26.26,17.8Z"/><path class="cls-4" d="M23.66,19a6.51,6.51,0,0,1-3.31,2.64c-3.94,1.21-12.75-2.3-15.59-5.28-1.9-2-1.39-5.61-1.36-5.79,2.56-.3,6.62-1,10.67.47,3.76,1.42,5.71,4.59,8.75,7.23Z"/><path class="cls-2" d="M13.48,21.36c-3.64-1.1-7.33-3.08-8.95-4.78-2-2.11-1.47-5.89-1.45-6a.31.31,0,0,1,.28-.27l.82-.11c2.65-.33,6.29-.8,10,.59,2.65,1,4.4,2.82,6.24,4.74.82.85,1.66,1.73,2.61,2.55q.43.39.84.72a.32.32,0,0,1,.07.41A6.91,6.91,0,0,1,20.44,22C18.68,22.49,16.09,22.15,13.48,21.36ZM3.69,10.86c-.09.84-.25,3.65,1.3,5.28,2.88,3,11.57,6.33,15.26,5.2a6.1,6.1,0,0,0,3-2.28c-.21-.17-.42-.36-.64-.55-1-.83-1.81-1.73-2.64-2.59-1.79-1.87-3.49-3.63-6-4.58-3.57-1.33-7.11-.88-9.7-.55Z"/><path class="cls-2" d="M23.57,19.3a.28.28,0,0,1-.2-.17.32.32,0,0,1,.07-.37.31.31,0,0,1,.32-.07.32.32,0,0,1,.21.4.37.37,0,0,1-.17.2A.31.31,0,0,1,23.57,19.3Z"/><path class="cls-5" d="M3.68,10.87l.8-.1a19.45,19.45,0,0,1,9.56.62c3.58,1.36,9.2,7.67,9.2,7.67l-.44.54S16.44,13,13.67,12c-2.46-.92-10-.25-10-.25"/><path class="cls-6" d="M34.08,39.78c-2.39-.06-3.64-.77-5.66-2.47l-.85-.73c-3-2.64-5-5.81-8.74-7.23-4-1.51-8.11-.77-10.67-.47-1.37.17-2.31.2-2.6-.31-1.95-3.49,2.56-7.74,4.86-8.68a16.6,16.6,0,0,1,3.42-1c9.26-1.64,18.83,4.62,21.31,11.83,1.66,4.81,6.33,1.38,6.74,4.28C42.43,38.8,37.64,39.88,34.08,39.78Z"/><path class="cls-6" d="M31.84,39.77a10.28,10.28,0,0,1-3.63-2.22c-.26-.22-.55-.46-.85-.73-1-.83-1.81-1.72-2.64-2.59-1.79-1.87-3.49-3.63-6-4.57-3.56-1.34-7.1-.89-9.69-.56l-.83.1c-1.4.17-2.51.24-2.91-.47a4.32,4.32,0,0,1-.22-3.65,10.79,10.79,0,0,1,5.24-5.49,17,17,0,0,1,3.49-1c9.73-1.72,19.23,5,21.66,12.05.87,2.5,2.57,2.59,4.08,2.67,1.21.06,2.46.13,2.68,1.66a3.55,3.55,0,0,1-.85,3c-1.92,2.14-6.06,2.2-7.29,2.16h0A8.18,8.18,0,0,1,31.84,39.77Zm-13.75-11c.28.08.57.18.85.28,2.65,1,4.4,2.82,6.24,4.74.82.85,1.66,1.73,2.6,2.55l.85.72c1.95,1.64,3.14,2.34,5.46,2.4h0c2.38.07,5.42-.41,6.79-2a2.9,2.9,0,0,0,.69-2.46c-.13-1-.77-1-2.08-1.11-1.53-.08-3.64-.2-4.64-3.1C32.49,24,23.31,17.55,13.9,19.22a16.33,16.33,0,0,0-3.36,1,10,10,0,0,0-4.88,5.11,3.66,3.66,0,0,0,.18,3.12c.22.4,1.56.24,2.28.16l.82-.11A21.33,21.33,0,0,1,18.09,28.77Z"/><path class="cls-7" d="M11.57,26.23a.3.3,0,0,1-.22-.24l-1.24-6a.33.33,0,0,1,.25-.38.33.33,0,0,1,.38.25l1.24,6a.32.32,0,0,1-.25.38A.29.29,0,0,1,11.57,26.23Z"/><path class="cls-7" d="M15.27,26.38a.33.33,0,0,1-.23-.24L13.52,18.9a.32.32,0,0,1,.24-.38.32.32,0,0,1,.38.25L15.67,26a.3.3,0,0,1-.25.37A.26.26,0,0,1,15.27,26.38Z"/><path class="cls-7" d="M18.76,26.39a.3.3,0,0,1-.22-.24L17,18.92a.32.32,0,0,1,.63-.13L19.16,26a.32.32,0,0,1-.24.38A.29.29,0,0,1,18.76,26.39Z"/><path class="cls-7" d="M22.69,29a.33.33,0,0,1-.23-.24l-1.83-9.5a.32.32,0,0,1,.26-.37.31.31,0,0,1,.37.25l1.83,9.49a.32.32,0,0,1-.25.38A.25.25,0,0,1,22.69,29Z"/><path class="cls-7" d="M26.5,32.38a.31.31,0,0,1-.22-.25L24.36,20.56a.33.33,0,0,1,.27-.37.32.32,0,0,1,.37.26L26.91,32a.32.32,0,0,1-.26.37A.38.38,0,0,1,26.5,32.38Z"/><path class="cls-7" d="M30.63,35.33a.31.31,0,0,1-.22-.25L28.26,22.65a.32.32,0,0,1,.26-.37.32.32,0,0,1,.37.26L31,35a.32.32,0,0,1-.26.37A.26.26,0,0,1,30.63,35.33Z"/><path class="cls-7" d="M34,36.25a.3.3,0,0,1-.22-.24L31.7,25.62a.33.33,0,0,1,.25-.38.33.33,0,0,1,.38.25l2.11,10.39a.31.31,0,0,1-.25.38A.26.26,0,0,1,34,36.25Z"/><path class="cls-7" d="M36.12,36a.33.33,0,0,1-.22-.24l-1-4.78a.32.32,0,1,1,.62-.13l1,4.78a.32.32,0,0,1-.25.38A.29.29,0,0,1,36.12,36Z"/><path class="cls-7" d="M39.68,36.87a.3.3,0,0,1-.22-.23l-.63-2.79a.31.31,0,0,1,.24-.38.32.32,0,0,1,.38.24l.63,2.79a.31.31,0,0,1-.24.38A.29.29,0,0,1,39.68,36.87Z"/><path class="cls-2" d="M31.84,39.77a10.28,10.28,0,0,1-3.63-2.22c-.26-.22-.55-.46-.85-.73-1-.83-1.81-1.72-2.64-2.59-1.79-1.87-3.49-3.63-6-4.57-3.56-1.34-7.1-.89-9.69-.56l-.83.1c-1.4.17-2.51.24-2.91-.47a4.32,4.32,0,0,1-.22-3.65,10.79,10.79,0,0,1,5.24-5.49,17,17,0,0,1,3.49-1c9.73-1.72,19.23,5,21.66,12.05.87,2.5,2.57,2.59,4.08,2.67,1.21.06,2.46.13,2.68,1.66a3.55,3.55,0,0,1-.85,3c-1.92,2.14-6.06,2.2-7.29,2.16h0A8.18,8.18,0,0,1,31.84,39.77Zm-13.75-11c.28.08.57.18.85.28,2.65,1,4.4,2.82,6.24,4.74.82.85,1.66,1.73,2.6,2.55l.85.72c1.95,1.64,3.14,2.34,5.46,2.4h0c2.38.07,5.42-.41,6.79-2a2.9,2.9,0,0,0,.69-2.46c-.13-1-.77-1-2.08-1.11-1.53-.08-3.64-.2-4.64-3.1C32.49,24,23.31,17.55,13.9,19.22a16.33,16.33,0,0,0-3.36,1,10,10,0,0,0-4.88,5.11,3.66,3.66,0,0,0,.18,3.12c.22.4,1.56.24,2.28.16l.82-.11A21.33,21.33,0,0,1,18.09,28.77Z"/><path class="cls-2" d="M31,36.11a4.11,4.11,0,0,1-.71-.27,21.89,21.89,0,0,1-4.21-3.6c-2-2-4.23-4.2-6.51-5.11-3.26-1.32-10.53-.57-10.6-.56a.33.33,0,0,1-.36-.29.33.33,0,0,1,.29-.35c.3,0,7.5-.77,10.91.6,2.4,1,4.69,3.24,6.72,5.25a21.23,21.23,0,0,0,4.06,3.49,16.73,16.73,0,0,0,2.91.77.31.31,0,0,1,.25.37.32.32,0,0,1-.37.26C33.2,36.63,31.92,36.38,31,36.11Z"/><path class="cls-4" d="M28.42,37.31A6.46,6.46,0,0,1,25.11,40c-3.94,1.21-12.75-2.3-15.59-5.28-1.9-2-1.39-5.61-1.36-5.79,2.56-.3,6.62-1,10.67.47,3.76,1.42,5.71,4.59,8.74,7.23Z"/><path class="cls-2" d="M18.24,39.67c-3.64-1.1-7.33-3.08-8.95-4.78-2-2.11-1.47-5.89-1.45-6.05a.31.31,0,0,1,.28-.27l.82-.11c2.65-.33,6.29-.8,10,.59,2.65,1,4.4,2.82,6.24,4.74.82.85,1.66,1.73,2.6,2.55l.85.72a.31.31,0,0,1,.06.41,6.81,6.81,0,0,1-3.49,2.79C23.44,40.8,20.85,40.46,18.24,39.67Zm-9.8-10.5c-.08.84-.24,3.65,1.31,5.28,2.88,3,11.57,6.33,15.26,5.2a6.1,6.1,0,0,0,3-2.28c-.21-.17-.42-.35-.64-.55-1-.83-1.81-1.72-2.64-2.59-1.79-1.87-3.49-3.63-6-4.57-3.56-1.34-7.1-.89-9.69-.56Z"/><path class="cls-2" d="M28.33,37.61a.28.28,0,0,1-.2-.17.32.32,0,0,1,.07-.37.33.33,0,0,1,.32-.07.32.32,0,0,1,.21.4.37.37,0,0,1-.17.2A.31.31,0,0,1,28.33,37.61Z"/><path class="cls-5" d="M8.44,29.18l.8-.1a19.45,19.45,0,0,1,9.56.62c3.58,1.36,9.2,7.67,9.2,7.67l-.44.54s-6.36-6.56-9.13-7.6c-2.46-.92-10-.25-10-.25"/></g></g></svg>